<?xml version="1.0" encoding="UTF-8" standalone="no"?>
<!DOCTYPE svg PUBLIC "-//W3C//DTD SVG 1.1//EN"
 "http://www.w3.org/Graphics/SVG/1.1/DTD/svg11.dtd">
<!-- Generated by graphviz version 2.40.1 (20161225.0304)
 -->
<!-- Title: public.customers Pages: 1 -->
<svg width="1123pt" height="592pt"
 viewBox="0.00 0.00 1123.00 592.00" xmlns="http://www.w3.org/2000/svg" xmlns:xlink="http://www.w3.org/1999/xlink">
<g id="graph0" class="graph" transform="scale(1 1) rotate(0) translate(4 588)">
<title>public.customers</title>
<polygon fill="#ffffff" stroke="transparent" points="-4,4 -4,-588 1119,-588 1119,4 -4,4"/>
<!-- public.customers -->
<g id="node1" class="node">
<title>public.customers</title>
<polygon fill="#efefef" stroke="transparent" points="447,-165.5 447,-200.5 723,-200.5 723,-165.5 447,-165.5"/>
<polygon fill="none" stroke="#000000" points="447,-165.5 447,-200.5 723,-200.5 723,-165.5 447,-165.5"/>
<text text-anchor="start" x="453.7088" y="-178.3" font-family="Arial Bold" font-size="18.00" fill="#000000">public.customers</text>
<text text-anchor="start" x="588.7232" y="-178.3" font-family="Arial" font-size="14.00" fill="#000000">    </text>
<text text-anchor="start" x="622.928" y="-178.3" font-family="Arial" font-size="14.00" fill="#666666">[BASE TABLE]</text>
<polygon fill="none" stroke="#000000" points="447,-135.5 447,-165.5 723,-165.5 723,-135.5 447,-135.5"/>
<text text-anchor="start" x="454" y="-146.9" font-family="Arial" font-size="14.00" fill="#000000">id </text>
<text text-anchor="start" x="468.7798" y="-146.9" font-family="Arial" font-size="14.00" fill="#666666">[text]</text>
<polygon fill="none" stroke="#000000" points="447,-105.5 447,-135.5 723,-135.5 723,-105.5 447,-105.5"/>
<text text-anchor="start" x="454" y="-116.9" font-family="Arial" font-size="14.00" fill="#000000">name </text>
<text text-anchor="start" x="492.899" y="-116.9" font-family="Arial" font-size="14.00" fill="#666666">[text]</text>
<polygon fill="none" stroke="#000000" points="447,-75.5 447,-105.5 723,-105.5 723,-75.5 447,-75.5"/>
<text text-anchor="start" x="454" y="-86.9" font-family="Arial" font-size="14.00" fill="#000000">email </text>
<text text-anchor="start" x="491.3296" y="-86.9" font-family="Arial" font-size="14.00" fill="#666666">[text]</text>
<polygon fill="none" stroke="#000000" points="447,-45.5 447,-75.5 723,-75.5 723,-45.5 447,-45.5"/>
<text text-anchor="start" x="454" y="-56.9" font-family="Arial" font-size="14.00" fill="#000000">password </text>
<text text-anchor="start" x="517.7882" y="-56.9" font-family="Arial" font-size="14.00" fill="#666666">[text]</text>
<polygon fill="none" stroke="#000000" stroke-width="3" points="445.5,-44.5 445.5,-202.5 724.5,-202.5 724.5,-44.5 445.5,-44.5"/>
</g>
<!-- public.orders -->
<g id="node2" class="node">
<title>public.orders</title>
<polygon fill="#efefef" stroke="transparent" points="261,-445.5 261,-480.5 505,-480.5 505,-445.5 261,-445.5"/>
<polygon fill="none" stroke="#000000" points="261,-445.5 261,-480.5 505,-480.5 505,-445.5 261,-445.5"/>
<text text-anchor="start" x="267.7099" y="-458.3" font-family="Arial Bold" font-size="18.00" fill="#000000">public.orders</text>
<text text-anchor="start" x="370.7221" y="-458.3" font-family="Arial" font-size="14.00" fill="#000000">    </text>
<text text-anchor="start" x="404.9269" y="-458.3" font-family="Arial" font-size="14.00" fill="#666666">[BASE TABLE]</text>
<polygon fill="none" stroke="#000000" points="261,-415.5 261,-445.5 505,-445.5 505,-415.5 261,-415.5"/>
<text text-anchor="start" x="268" y="-426.9" font-family="Arial" font-size="14.00" fill="#000000">id    </text>
<text text-anchor="start" x="313.094" y="-426.9" font-family="Arial" font-size="14.00" fill="#666666">[text]</text>
<polygon fill="none" stroke="#000000" points="261,-385.5 261,-415.5 505,-415.5 505,-385.5 261,-385.5"/>
<text text-anchor="start" x="268" y="-396.9" font-family="Arial" font-size="14.00" fill="#000000">customer_id    </text>
<text text-anchor="start" x="378.4362" y="-396.9" font-family="Arial" font-size="14.00" fill="#666666">[text]</text>
</g>
<!-- public.orders&#45;&gt;public.customers -->
<g id="edge1" class="edge">
<title>public.orders:customer_id&#45;&gt;public.customers:id</title>
<path fill="none" stroke="#000000" d="M514.8151,-397.5537C524.2188,-388.9498 510.6268,-363.1943 505,-343 491.6201,-294.98 460.3799,-295.02 447,-247 435.4883,-205.6849 404.1111,-150.5 447,-150.5"/>
<polygon fill="#000000" stroke="#000000" points="514.5778,-397.6248 503.7062,-396.19 509.7889,-399.0624 505,-400.5 505,-400.5 505,-400.5 509.7889,-399.0624 506.2938,-404.81 514.5778,-397.6248 514.5778,-397.6248"/>
<text text-anchor="start" x="7.446" y="-410.5" font-family="Arial" font-size="10.00" fill="#000000">FOREIGN KEY (customer_id) REFERENCES customers(id) ON UPDATE CASCADE ON DELETE RESTRICT</text>
</g>
<!-- public.shipping_addresses -->
<g id="node3" class="node">
<title>public.shipping_addresses</title>
<polygon fill="#efefef" stroke="transparent" points="610,-505.5 610,-540.5 963,-540.5 963,-505.5 610,-505.5"/>
<polygon fill="none" stroke="#000000" points="610,-505.5 610,-540.5 963,-540.5 963,-505.5 610,-505.5"/>
<text text-anchor="start" x="616.687" y="-518.3" font-family="Arial Bold" font-size="18.00" fill="#000000">public.shipping_addresses</text>
<text text-anchor="start" x="828.745" y="-518.3" font-family="Arial" font-size="14.00" fill="#000000">    </text>
<text text-anchor="start" x="862.9498" y="-518.3" font-family="Arial" font-size="14.00" fill="#666666">[BASE TABLE]</text>
<polygon fill="none" stroke="#000000" points="610,-475.5 610,-505.5 963,-505.5 963,-475.5 610,-475.5"/>
<text text-anchor="start" x="617" y="-486.9" font-family="Arial" font-size="14.00" fill="#000000">id    </text>
<text text-anchor="start" x="662.094" y="-486.9" font-family="Arial" font-size="14.00" fill="#666666">[text]</text>
<polygon fill="none" stroke="#000000" points="610,-445.5 610,-475.5 963,-475.5 963,-445.5 610,-445.5"/>
<text text-anchor="start" x="617" y="-456.9" font-family="Arial" font-size="14.00" fill="#000000">customer_id    </text>
<text text-anchor="start" x="727.4362" y="-456.9" font-family="Arial" font-size="14.00" fill="#666666">[text]</text>
<polygon fill="none" stroke="#000000" points="610,-415.5 610,-445.5 963,-445.5 963,-415.5 610,-415.5"/>
<text text-anchor="start" x="617" y="-426.9" font-family="Arial" font-size="14.00" fill="#000000">name    </text>
<text text-anchor="start" x="686.2132" y="-426.9" font-family="Arial" font-size="14.00" fill="#666666">[text]</text>
<polygon fill="none" stroke="#000000" points="610,-385.5 610,-415.5 963,-415.5 963,-385.5 610,-385.5"/>
<text text-anchor="start" x="617" y="-396.9" font-family="Arial" font-size="14.00" fill="#000000">postal_code    </text>
<text text-anchor="start" x="726.6802" y="-396.9" font-family="Arial" font-size="14.00" fill="#666666">[text]</text>
<polygon fill="none" stroke="#000000" points="610,-355.5 610,-385.5 963,-385.5 963,-355.5 610,-355.5"/>
<text text-anchor="start" x="617" y="-366.9" font-family="Arial" font-size="14.00" fill="#000000">address    </text>
<text text-anchor="start" x="700.9958" y="-366.9" font-family="Arial" font-size="14.00" fill="#666666">[text]</text>
<polygon fill="none" stroke="#000000" points="610,-325.5 610,-355.5 963,-355.5 963,-325.5 610,-325.5"/>
<text text-anchor="start" x="617" y="-336.9" font-family="Arial" font-size="14.00" fill="#000000">tel    </text>
<text text-anchor="start" x="665.9846" y="-336.9" font-family="Arial" font-size="14.00" fill="#666666">[text]</text>
</g>
<!-- public.shipping_addresses&#45;&gt;public.customers -->
<g id="edge2" class="edge">
<title>public.shipping_addresses:customer_id&#45;&gt;public.customers:id</title>
<path fill="none" stroke="#000000" d="M599.6294,-459.7667C534.1739,-449.9404 565.6294,-343.7037 610,-283 641.104,-240.4464 691.896,-289.5536 723,-247 748.309,-212.3747 765.8889,-150.5 723,-150.5"/>
<polygon fill="#000000" stroke="#000000" points="600.0249,-459.7945 609.6825,-464.9888 605.0125,-460.1473 610,-460.5 610,-460.5 610,-460.5 605.0125,-460.1473 610.3175,-456.0112 600.0249,-459.7945 600.0249,-459.7945"/>
<text text-anchor="start" x="617.446" y="-470.5" font-family="Arial" font-size="10.00" fill="#000000">FOREIGN KEY (customer_id) REFERENCES customers(id) ON UPDATE CASCADE ON DELETE RESTRICT</text>
</g>
</g>
</svg>
