<?xml version="1.0" encoding="UTF-8" standalone="no"?>
<!DOCTYPE svg PUBLIC "-//W3C//DTD SVG 1.1//EN"
 "http://www.w3.org/Graphics/SVG/1.1/DTD/svg11.dtd">
<!-- Generated by graphviz version 2.40.1 (20161225.0304)
 -->
<!-- Title: public.orders Pages: 1 -->
<svg width="1126pt" height="779pt"
 viewBox="0.00 0.00 1126.00 779.00" xmlns="http://www.w3.org/2000/svg" xmlns:xlink="http://www.w3.org/1999/xlink">
<g id="graph0" class="graph" transform="scale(1 1) rotate(0) translate(4 775)">
<title>public.orders</title>
<polygon fill="#ffffff" stroke="transparent" points="-4,4 -4,-775 1122,-775 1122,4 -4,4"/>
<!-- public.orders -->
<g id="node1" class="node">
<title>public.orders</title>
<polygon fill="#efefef" stroke="transparent" points="383,-382.5 383,-417.5 627,-417.5 627,-382.5 383,-382.5"/>
<polygon fill="none" stroke="#000000" points="383,-382.5 383,-417.5 627,-417.5 627,-382.5 383,-382.5"/>
<text text-anchor="start" x="389.7099" y="-395.3" font-family="Arial Bold" font-size="18.00" fill="#000000">public.orders</text>
<text text-anchor="start" x="492.7221" y="-395.3" font-family="Arial" font-size="14.00" fill="#000000">    </text>
<text text-anchor="start" x="526.9269" y="-395.3" font-family="Arial" font-size="14.00" fill="#666666">[BASE TABLE]</text>
<polygon fill="none" stroke="#000000" points="383,-352.5 383,-382.5 627,-382.5 627,-352.5 383,-352.5"/>
<text text-anchor="start" x="390" y="-363.9" font-family="Arial" font-size="14.00" fill="#000000">id </text>
<text text-anchor="start" x="404.7798" y="-363.9" font-family="Arial" font-size="14.00" fill="#666666">[text]</text>
<polygon fill="none" stroke="#000000" points="383,-322.5 383,-352.5 627,-352.5 627,-322.5 383,-322.5"/>
<text text-anchor="start" x="390" y="-333.9" font-family="Arial" font-size="14.00" fill="#000000">customer_id </text>
<text text-anchor="start" x="470.122" y="-333.9" font-family="Arial" font-size="14.00" fill="#666666">[text]</text>
<polygon fill="none" stroke="#000000" stroke-width="3" points="381.5,-321.5 381.5,-419.5 628.5,-419.5 628.5,-321.5 381.5,-321.5"/>
</g>
<!-- public.customers -->
<g id="node3" class="node">
<title>public.customers</title>
<polygon fill="#efefef" stroke="transparent" points="367,-162.5 367,-197.5 643,-197.5 643,-162.5 367,-162.5"/>
<polygon fill="none" stroke="#000000" points="367,-162.5 367,-197.5 643,-197.5 643,-162.5 367,-162.5"/>
<text text-anchor="start" x="373.7088" y="-175.3" font-family="Arial Bold" font-size="18.00" fill="#000000">public.customers</text>
<text text-anchor="start" x="508.7232" y="-175.3" font-family="Arial" font-size="14.00" fill="#000000">    </text>
<text text-anchor="start" x="542.928" y="-175.3" font-family="Arial" font-size="14.00" fill="#666666">[BASE TABLE]</text>
<polygon fill="none" stroke="#000000" points="367,-132.5 367,-162.5 643,-162.5 643,-132.5 367,-132.5"/>
<text text-anchor="start" x="374" y="-143.9" font-family="Arial" font-size="14.00" fill="#000000">id    </text>
<text text-anchor="start" x="419.094" y="-143.9" font-family="Arial" font-size="14.00" fill="#666666">[text]</text>
<polygon fill="none" stroke="#000000" points="367,-102.5 367,-132.5 643,-132.5 643,-102.5 367,-102.5"/>
<text text-anchor="start" x="374" y="-113.9" font-family="Arial" font-size="14.00" fill="#000000">name    </text>
<text text-anchor="start" x="443.2132" y="-113.9" font-family="Arial" font-size="14.00" fill="#666666">[text]</text>
<polygon fill="none" stroke="#000000" points="367,-72.5 367,-102.5 643,-102.5 643,-72.5 367,-72.5"/>
<text text-anchor="start" x="374" y="-83.9" font-family="Arial" font-size="14.00" fill="#000000">email    </text>
<text text-anchor="start" x="441.6438" y="-83.9" font-family="Arial" font-size="14.00" fill="#666666">[text]</text>
<polygon fill="none" stroke="#000000" points="367,-42.5 367,-72.5 643,-72.5 643,-42.5 367,-42.5"/>
<text text-anchor="start" x="374" y="-53.9" font-family="Arial" font-size="14.00" fill="#000000">password    </text>
<text text-anchor="start" x="468.1024" y="-53.9" font-family="Arial" font-size="14.00" fill="#666666">[text]</text>
</g>
<!-- public.orders&#45;&gt;public.customers -->
<g id="edge2" class="edge">
<title>public.orders:customer_id&#45;&gt;public.customers:id</title>
<path fill="none" stroke="#000000" d="M505.8318,-312.2211C515.6431,-256.3952 609.5514,-299.6003 643,-241 663.6,-204.9098 684.5556,-147.5 643,-147.5"/>
<polygon fill="#000000" stroke="#000000" points="505.8067,-312.5326 500.5147,-322.137 505.4033,-317.5163 505,-322.5 505,-322.5 505,-322.5 505.4033,-317.5163 509.4853,-322.863 505.8067,-312.5326 505.8067,-312.5326"/>
<text text-anchor="start" x="7.446" y="-332.5" font-family="Arial" font-size="10.00" fill="#000000">FOREIGN KEY (customer_id) REFERENCES customers(id) ON UPDATE CASCADE ON DELETE RESTRICT</text>
</g>
<!-- public.order_items -->
<g id="node2" class="node">
<title>public.order_items</title>
<polygon fill="#efefef" stroke="transparent" points="361,-692.5 361,-727.5 649,-727.5 649,-692.5 361,-692.5"/>
<polygon fill="none" stroke="#000000" points="361,-692.5 361,-727.5 649,-727.5 649,-692.5 361,-692.5"/>
<text text-anchor="start" x="367.7094" y="-705.3" font-family="Arial Bold" font-size="18.00" fill="#000000">public.order_items</text>
<text text-anchor="start" x="514.7226" y="-705.3" font-family="Arial" font-size="14.00" fill="#000000">    </text>
<text text-anchor="start" x="548.9274" y="-705.3" font-family="Arial" font-size="14.00" fill="#666666">[BASE TABLE]</text>
<polygon fill="none" stroke="#000000" points="361,-662.5 361,-692.5 649,-692.5 649,-662.5 361,-662.5"/>
<text text-anchor="start" x="368" y="-673.9" font-family="Arial" font-size="14.00" fill="#000000">id    </text>
<text text-anchor="start" x="413.094" y="-673.9" font-family="Arial" font-size="14.00" fill="#666666">[text]</text>
<polygon fill="none" stroke="#000000" points="361,-632.5 361,-662.5 649,-662.5 649,-632.5 361,-632.5"/>
<text text-anchor="start" x="368" y="-643.9" font-family="Arial" font-size="14.00" fill="#000000">order_id    </text>
<text text-anchor="start" x="453.5456" y="-643.9" font-family="Arial" font-size="14.00" fill="#666666">[text]</text>
<polygon fill="none" stroke="#000000" points="361,-602.5 361,-632.5 649,-632.5 649,-602.5 361,-602.5"/>
<text text-anchor="start" x="368" y="-613.9" font-family="Arial" font-size="14.00" fill="#000000">book_id    </text>
<text text-anchor="start" x="451.2244" y="-613.9" font-family="Arial" font-size="14.00" fill="#666666">[text]</text>
<polygon fill="none" stroke="#000000" points="361,-572.5 361,-602.5 649,-602.5 649,-572.5 361,-572.5"/>
<text text-anchor="start" x="368" y="-583.9" font-family="Arial" font-size="14.00" fill="#000000">quantity    </text>
<text text-anchor="start" x="451.223" y="-583.9" font-family="Arial" font-size="14.00" fill="#666666">[integer]</text>
<polygon fill="none" stroke="#000000" points="361,-542.5 361,-572.5 649,-572.5 649,-542.5 361,-542.5"/>
<text text-anchor="start" x="368" y="-553.9" font-family="Arial" font-size="14.00" fill="#000000">price    </text>
<text text-anchor="start" x="432.5372" y="-553.9" font-family="Arial" font-size="14.00" fill="#666666">[integer]</text>
</g>
<!-- public.order_items&#45;&gt;public.orders -->
<g id="edge1" class="edge">
<title>public.order_items:order_id&#45;&gt;public.orders:id</title>
<path fill="none" stroke="#000000" d="M659.2532,-646.839C772.4994,-631.8652 748.2928,-367.5 627,-367.5"/>
<polygon fill="#000000" stroke="#000000" points="658.9793,-646.8566 648.7105,-643.0093 653.9896,-647.1783 649,-647.5 649,-647.5 649,-647.5 653.9896,-647.1783 649.2895,-651.9907 658.9793,-646.8566 658.9793,-646.8566"/>
<text text-anchor="start" x="656.225" y="-657.5" font-family="Arial" font-size="10.00" fill="#000000">FOREIGN KEY (order_id) REFERENCES orders(id) ON UPDATE CASCADE ON DELETE RESTRICT</text>
</g>
</g>
</svg>
