<?xml version="1.0" encoding="UTF-8" standalone="no"?>
<!DOCTYPE svg PUBLIC "-//W3C//DTD SVG 1.1//EN"
 "http://www.w3.org/Graphics/SVG/1.1/DTD/svg11.dtd">
<!-- Generated by graphviz version 2.40.1 (20161225.0304)
 -->
<!-- Title: public.order_items Pages: 1 -->
<svg width="1231pt" height="622pt"
 viewBox="0.00 0.00 1231.00 622.00" xmlns="http://www.w3.org/2000/svg" xmlns:xlink="http://www.w3.org/1999/xlink">
<g id="graph0" class="graph" transform="scale(1 1) rotate(0) translate(4 618)">
<title>public.order_items</title>
<polygon fill="#ffffff" stroke="transparent" points="-4,4 -4,-618 1227,-618 1227,4 -4,4"/>
<!-- public.order_items -->
<g id="node1" class="node">
<title>public.order_items</title>
<polygon fill="#efefef" stroke="transparent" points="469,-532.5 469,-567.5 757,-567.5 757,-532.5 469,-532.5"/>
<polygon fill="none" stroke="#000000" points="469,-532.5 469,-567.5 757,-567.5 757,-532.5 469,-532.5"/>
<text text-anchor="start" x="475.7094" y="-545.3" font-family="Arial Bold" font-size="18.00" fill="#000000">public.order_items</text>
<text text-anchor="start" x="622.7226" y="-545.3" font-family="Arial" font-size="14.00" fill="#000000">    </text>
<text text-anchor="start" x="656.9274" y="-545.3" font-family="Arial" font-size="14.00" fill="#666666">[BASE TABLE]</text>
<polygon fill="none" stroke="#000000" points="469,-502.5 469,-532.5 757,-532.5 757,-502.5 469,-502.5"/>
<text text-anchor="start" x="476" y="-513.9" font-family="Arial" font-size="14.00" fill="#000000">id </text>
<text text-anchor="start" x="490.7798" y="-513.9" font-family="Arial" font-size="14.00" fill="#666666">[text]</text>
<polygon fill="none" stroke="#000000" points="469,-472.5 469,-502.5 757,-502.5 757,-472.5 469,-472.5"/>
<text text-anchor="start" x="476" y="-483.9" font-family="Arial" font-size="14.00" fill="#000000">order_id </text>
<text text-anchor="start" x="531.2314" y="-483.9" font-family="Arial" font-size="14.00" fill="#666666">[text]</text>
<polygon fill="none" stroke="#000000" points="469,-442.5 469,-472.5 757,-472.5 757,-442.5 469,-442.5"/>
<text text-anchor="start" x="476" y="-453.9" font-family="Arial" font-size="14.00" fill="#000000">book_id </text>
<text text-anchor="start" x="528.9102" y="-453.9" font-family="Arial" font-size="14.00" fill="#666666">[text]</text>
<polygon fill="none" stroke="#000000" points="469,-412.5 469,-442.5 757,-442.5 757,-412.5 469,-412.5"/>
<text text-anchor="start" x="476" y="-423.9" font-family="Arial" font-size="14.00" fill="#000000">quantity </text>
<text text-anchor="start" x="528.9088" y="-423.9" font-family="Arial" font-size="14.00" fill="#666666">[integer]</text>
<polygon fill="none" stroke="#000000" points="469,-382.5 469,-412.5 757,-412.5 757,-382.5 469,-382.5"/>
<text text-anchor="start" x="476" y="-393.9" font-family="Arial" font-size="14.00" fill="#000000">price </text>
<text text-anchor="start" x="510.223" y="-393.9" font-family="Arial" font-size="14.00" fill="#666666">[integer]</text>
<polygon fill="none" stroke="#000000" stroke-width="3" points="467.5,-381.5 467.5,-569.5 758.5,-569.5 758.5,-381.5 467.5,-381.5"/>
</g>
<!-- public.orders -->
<g id="node2" class="node">
<title>public.orders</title>
<polygon fill="#efefef" stroke="transparent" points="294,-162.5 294,-197.5 538,-197.5 538,-162.5 294,-162.5"/>
<polygon fill="none" stroke="#000000" points="294,-162.5 294,-197.5 538,-197.5 538,-162.5 294,-162.5"/>
<text text-anchor="start" x="300.7099" y="-175.3" font-family="Arial Bold" font-size="18.00" fill="#000000">public.orders</text>
<text text-anchor="start" x="403.7221" y="-175.3" font-family="Arial" font-size="14.00" fill="#000000">    </text>
<text text-anchor="start" x="437.9269" y="-175.3" font-family="Arial" font-size="14.00" fill="#666666">[BASE TABLE]</text>
<polygon fill="none" stroke="#000000" points="294,-132.5 294,-162.5 538,-162.5 538,-132.5 294,-132.5"/>
<text text-anchor="start" x="301" y="-143.9" font-family="Arial" font-size="14.00" fill="#000000">id    </text>
<text text-anchor="start" x="346.094" y="-143.9" font-family="Arial" font-size="14.00" fill="#666666">[text]</text>
<polygon fill="none" stroke="#000000" points="294,-102.5 294,-132.5 538,-132.5 538,-102.5 294,-102.5"/>
<text text-anchor="start" x="301" y="-113.9" font-family="Arial" font-size="14.00" fill="#000000">customer_id    </text>
<text text-anchor="start" x="411.4362" y="-113.9" font-family="Arial" font-size="14.00" fill="#666666">[text]</text>
</g>
<!-- public.order_items&#45;&gt;public.orders -->
<g id="edge1" class="edge">
<title>public.order_items:order_id&#45;&gt;public.orders:id</title>
<path fill="none" stroke="#000000" d="M458.8314,-487.2137C305.0178,-478.16 532.765,-257.2531 538,-241 550.7402,-201.4456 579.5556,-147.5 538,-147.5"/>
<polygon fill="#000000" stroke="#000000" points="459.004,-487.2185 468.8733,-491.9982 464.002,-487.3593 469,-487.5 469,-487.5 469,-487.5 464.002,-487.3593 469.1267,-483.0018 459.004,-487.2185 459.004,-487.2185"/>
<text text-anchor="start" x="7.225" y="-497.5" font-family="Arial" font-size="10.00" fill="#000000">FOREIGN KEY (order_id) REFERENCES orders(id) ON UPDATE CASCADE ON DELETE RESTRICT</text>
</g>
<!-- public.books -->
<g id="node3" class="node">
<title>public.books</title>
<polygon fill="#efefef" stroke="transparent" points="643,-222.5 643,-257.5 976,-257.5 976,-222.5 643,-222.5"/>
<polygon fill="none" stroke="#000000" points="643,-222.5 643,-257.5 976,-257.5 976,-222.5 643,-222.5"/>
<text text-anchor="start" x="695.7021" y="-235.3" font-family="Arial Bold" font-size="18.00" fill="#000000">public.books</text>
<text text-anchor="start" x="795.7299" y="-235.3" font-family="Arial" font-size="14.00" fill="#000000">    </text>
<text text-anchor="start" x="829.9347" y="-235.3" font-family="Arial" font-size="14.00" fill="#666666">[BASE TABLE]</text>
<polygon fill="none" stroke="#000000" points="643,-192.5 643,-222.5 976,-222.5 976,-192.5 643,-192.5"/>
<text text-anchor="start" x="650" y="-203.9" font-family="Arial" font-size="14.00" fill="#000000">id    </text>
<text text-anchor="start" x="695.094" y="-203.9" font-family="Arial" font-size="14.00" fill="#666666">[text]</text>
<polygon fill="none" stroke="#000000" points="643,-162.5 643,-192.5 976,-192.5 976,-162.5 643,-162.5"/>
<text text-anchor="start" x="650" y="-173.9" font-family="Arial" font-size="14.00" fill="#000000">title    </text>
<text text-anchor="start" x="705.9818" y="-173.9" font-family="Arial" font-size="14.00" fill="#666666">[text]</text>
<polygon fill="none" stroke="#000000" points="643,-132.5 643,-162.5 976,-162.5 976,-132.5 643,-132.5"/>
<text text-anchor="start" x="649.6473" y="-143.9" font-family="Arial" font-size="14.00" fill="#000000">published_on    </text>
<text text-anchor="start" x="767.1087" y="-143.9" font-family="Arial" font-size="14.00" fill="#666666">[timestamp(3) without time zone]</text>
<polygon fill="none" stroke="#000000" points="643,-102.5 643,-132.5 976,-132.5 976,-102.5 643,-102.5"/>
<text text-anchor="start" x="650" y="-113.9" font-family="Arial" font-size="14.00" fill="#000000">price    </text>
<text text-anchor="start" x="714.5372" y="-113.9" font-family="Arial" font-size="14.00" fill="#666666">[integer]</text>
<polygon fill="none" stroke="#000000" points="643,-72.5 643,-102.5 976,-102.5 976,-72.5 643,-72.5"/>
<text text-anchor="start" x="650" y="-83.9" font-family="Arial" font-size="14.00" fill="#000000">subtitle    </text>
<text text-anchor="start" x="728.547" y="-83.9" font-family="Arial" font-size="14.00" fill="#666666">[text]</text>
<polygon fill="none" stroke="#000000" points="643,-42.5 643,-72.5 976,-72.5 976,-42.5 643,-42.5"/>
<text text-anchor="start" x="650" y="-53.9" font-family="Arial" font-size="14.00" fill="#000000">publisher_id    </text>
<text text-anchor="start" x="759.6634" y="-53.9" font-family="Arial" font-size="14.00" fill="#666666">[text]</text>
</g>
<!-- public.order_items&#45;&gt;public.books -->
<g id="edge2" class="edge">
<title>public.order_items:book_id&#45;&gt;public.books:id</title>
<path fill="none" stroke="#000000" d="M766.9463,-456.4519C807.5162,-447.0906 786.4941,-377.2438 757,-337 725.5915,-294.1442 674.4085,-343.8558 643,-301 618.4353,-267.4823 601.4444,-207.5 643,-207.5"/>
<polygon fill="#000000" stroke="#000000" points="766.9449,-456.4519 756.5284,-453.0248 761.9725,-456.976 757,-457.5 757,-457.5 757,-457.5 761.9725,-456.976 757.4716,-461.9752 766.9449,-456.4519 766.9449,-456.4519"/>
<text text-anchor="start" x="763.883" y="-467.5" font-family="Arial" font-size="10.00" fill="#000000">FOREIGN KEY (book_id) REFERENCES books(id) ON UPDATE CASCADE ON DELETE RESTRICT</text>
</g>
</g>
</svg>
