<?xml version="1.0" encoding="UTF-8" standalone="no"?>
<!DOCTYPE svg PUBLIC "-//W3C//DTD SVG 1.1//EN"
 "http://www.w3.org/Graphics/SVG/1.1/DTD/svg11.dtd">
<!-- Generated by graphviz version 2.40.1 (20161225.0304)
 -->
<!-- Title: public.book_images Pages: 1 -->
<svg width="683pt" height="562pt"
 viewBox="0.00 0.00 682.50 562.00" xmlns="http://www.w3.org/2000/svg" xmlns:xlink="http://www.w3.org/1999/xlink">
<g id="graph0" class="graph" transform="scale(1 1) rotate(0) translate(4 558)">
<title>public.book_images</title>
<polygon fill="#ffffff" stroke="transparent" points="-4,4 -4,-558 678.5,-558 678.5,4 -4,4"/>
<!-- public.book_images -->
<g id="node1" class="node">
<title>public.book_images</title>
<polygon fill="#efefef" stroke="transparent" points="316,-472.5 316,-507.5 616,-507.5 616,-472.5 316,-472.5"/>
<polygon fill="none" stroke="#000000" points="316,-472.5 316,-507.5 616,-507.5 616,-472.5 316,-472.5"/>
<text text-anchor="start" x="322.6965" y="-485.3" font-family="Arial Bold" font-size="18.00" fill="#000000">public.book_images</text>
<text text-anchor="start" x="481.7355" y="-485.3" font-family="Arial" font-size="14.00" fill="#000000">    </text>
<text text-anchor="start" x="515.9403" y="-485.3" font-family="Arial" font-size="14.00" fill="#666666">[BASE TABLE]</text>
<polygon fill="none" stroke="#000000" points="316,-442.5 316,-472.5 616,-472.5 616,-442.5 316,-442.5"/>
<text text-anchor="start" x="323" y="-453.9" font-family="Arial" font-size="14.00" fill="#000000">id </text>
<text text-anchor="start" x="337.7798" y="-453.9" font-family="Arial" font-size="14.00" fill="#666666">[text]</text>
<polygon fill="none" stroke="#000000" points="316,-412.5 316,-442.5 616,-442.5 616,-412.5 316,-412.5"/>
<text text-anchor="start" x="323" y="-423.9" font-family="Arial" font-size="14.00" fill="#000000">url </text>
<text text-anchor="start" x="342.4404" y="-423.9" font-family="Arial" font-size="14.00" fill="#666666">[text]</text>
<polygon fill="none" stroke="#000000" points="316,-382.5 316,-412.5 616,-412.5 616,-382.5 316,-382.5"/>
<text text-anchor="start" x="323" y="-393.9" font-family="Arial" font-size="14.00" fill="#000000">book_id </text>
<text text-anchor="start" x="375.9102" y="-393.9" font-family="Arial" font-size="14.00" fill="#666666">[text]</text>
<polygon fill="none" stroke="#000000" stroke-width="3" points="314.5,-381.5 314.5,-509.5 617.5,-509.5 617.5,-381.5 314.5,-381.5"/>
</g>
<!-- public.books -->
<g id="node2" class="node">
<title>public.books</title>
<polygon fill="#efefef" stroke="transparent" points="299,-222.5 299,-257.5 632,-257.5 632,-222.5 299,-222.5"/>
<polygon fill="none" stroke="#000000" points="299,-222.5 299,-257.5 632,-257.5 632,-222.5 299,-222.5"/>
<text text-anchor="start" x="351.7021" y="-235.3" font-family="Arial Bold" font-size="18.00" fill="#000000">public.books</text>
<text text-anchor="start" x="451.7299" y="-235.3" font-family="Arial" font-size="14.00" fill="#000000">    </text>
<text text-anchor="start" x="485.9347" y="-235.3" font-family="Arial" font-size="14.00" fill="#666666">[BASE TABLE]</text>
<polygon fill="none" stroke="#000000" points="299,-192.5 299,-222.5 632,-222.5 632,-192.5 299,-192.5"/>
<text text-anchor="start" x="306" y="-203.9" font-family="Arial" font-size="14.00" fill="#000000">id    </text>
<text text-anchor="start" x="351.094" y="-203.9" font-family="Arial" font-size="14.00" fill="#666666">[text]</text>
<polygon fill="none" stroke="#000000" points="299,-162.5 299,-192.5 632,-192.5 632,-162.5 299,-162.5"/>
<text text-anchor="start" x="306" y="-173.9" font-family="Arial" font-size="14.00" fill="#000000">title    </text>
<text text-anchor="start" x="361.9818" y="-173.9" font-family="Arial" font-size="14.00" fill="#666666">[text]</text>
<polygon fill="none" stroke="#000000" points="299,-132.5 299,-162.5 632,-162.5 632,-132.5 299,-132.5"/>
<text text-anchor="start" x="305.6473" y="-143.9" font-family="Arial" font-size="14.00" fill="#000000">published_on    </text>
<text text-anchor="start" x="423.1087" y="-143.9" font-family="Arial" font-size="14.00" fill="#666666">[timestamp(3) without time zone]</text>
<polygon fill="none" stroke="#000000" points="299,-102.5 299,-132.5 632,-132.5 632,-102.5 299,-102.5"/>
<text text-anchor="start" x="306" y="-113.9" font-family="Arial" font-size="14.00" fill="#000000">price    </text>
<text text-anchor="start" x="370.5372" y="-113.9" font-family="Arial" font-size="14.00" fill="#666666">[integer]</text>
<polygon fill="none" stroke="#000000" points="299,-72.5 299,-102.5 632,-102.5 632,-72.5 299,-72.5"/>
<text text-anchor="start" x="306" y="-83.9" font-family="Arial" font-size="14.00" fill="#000000">subtitle    </text>
<text text-anchor="start" x="384.547" y="-83.9" font-family="Arial" font-size="14.00" fill="#666666">[text]</text>
<polygon fill="none" stroke="#000000" points="299,-42.5 299,-72.5 632,-72.5 632,-42.5 299,-42.5"/>
<text text-anchor="start" x="306" y="-53.9" font-family="Arial" font-size="14.00" fill="#000000">publisher_id    </text>
<text text-anchor="start" x="415.6634" y="-53.9" font-family="Arial" font-size="14.00" fill="#666666">[text]</text>
</g>
<!-- public.book_images&#45;&gt;public.books -->
<g id="edge1" class="edge">
<title>public.book_images:book_id&#45;&gt;public.books:id</title>
<path fill="none" stroke="#000000" d="M466.7236,-372.3211C476.8496,-306.3563 590.4892,-367.6242 632,-301 653.9751,-265.7302 673.5556,-207.5 632,-207.5"/>
<polygon fill="#000000" stroke="#000000" points="466.7091,-372.5252 461.5113,-382.1809 466.3546,-377.5126 466,-382.5 466,-382.5 466,-382.5 466.3546,-377.5126 470.4887,-382.8191 466.7091,-372.5252 466.7091,-372.5252"/>
<text text-anchor="start" x="6.883" y="-392.5" font-family="Arial" font-size="10.00" fill="#000000">FOREIGN KEY (book_id) REFERENCES books(id) ON UPDATE CASCADE ON DELETE RESTRICT</text>
</g>
</g>
</svg>
