<?xml version="1.0" encoding="UTF-8" standalone="no"?>
<!DOCTYPE svg PUBLIC "-//W3C//DTD SVG 1.1//EN"
 "http://www.w3.org/Graphics/SVG/1.1/DTD/svg11.dtd">
<!-- Generated by graphviz version 2.40.1 (20161225.0304)
 -->
<!-- Title: public.authors Pages: 1 -->
<svg width="832pt" height="412pt"
 viewBox="0.00 0.00 832.00 412.00" xmlns="http://www.w3.org/2000/svg" xmlns:xlink="http://www.w3.org/1999/xlink">
<g id="graph0" class="graph" transform="scale(1 1) rotate(0) translate(4 408)">
<title>public.authors</title>
<polygon fill="#ffffff" stroke="transparent" points="-4,4 -4,-408 828,-408 828,4 -4,4"/>
<!-- public.authors -->
<g id="node1" class="node">
<title>public.authors</title>
<polygon fill="#efefef" stroke="transparent" points="503,-105.5 503,-140.5 756,-140.5 756,-105.5 503,-105.5"/>
<polygon fill="none" stroke="#000000" points="503,-105.5 503,-140.5 756,-140.5 756,-105.5 503,-105.5"/>
<text text-anchor="start" x="509.7018" y="-118.3" font-family="Arial Bold" font-size="18.00" fill="#000000">public.authors</text>
<text text-anchor="start" x="621.7302" y="-118.3" font-family="Arial" font-size="14.00" fill="#000000">    </text>
<text text-anchor="start" x="655.935" y="-118.3" font-family="Arial" font-size="14.00" fill="#666666">[BASE TABLE]</text>
<polygon fill="none" stroke="#000000" points="503,-75.5 503,-105.5 756,-105.5 756,-75.5 503,-75.5"/>
<text text-anchor="start" x="510" y="-86.9" font-family="Arial" font-size="14.00" fill="#000000">id </text>
<text text-anchor="start" x="524.7798" y="-86.9" font-family="Arial" font-size="14.00" fill="#666666">[text]</text>
<polygon fill="none" stroke="#000000" points="503,-45.5 503,-75.5 756,-75.5 756,-45.5 503,-45.5"/>
<text text-anchor="start" x="510" y="-56.9" font-family="Arial" font-size="14.00" fill="#000000">name </text>
<text text-anchor="start" x="548.899" y="-56.9" font-family="Arial" font-size="14.00" fill="#666666">[text]</text>
<polygon fill="none" stroke="#000000" stroke-width="3" points="501,-44.5 501,-142.5 757,-142.5 757,-44.5 501,-44.5"/>
</g>
<!-- public.author_books -->
<g id="node2" class="node">
<title>public.author_books</title>
<polygon fill="#efefef" stroke="transparent" points="479,-325.5 479,-360.5 781,-360.5 781,-325.5 479,-325.5"/>
<polygon fill="none" stroke="#000000" points="479,-325.5 479,-360.5 781,-360.5 781,-325.5 479,-325.5"/>
<text text-anchor="start" x="485.6894" y="-338.3" font-family="Arial Bold" font-size="18.00" fill="#000000">public.author_books</text>
<text text-anchor="start" x="646.7426" y="-338.3" font-family="Arial" font-size="14.00" fill="#000000">    </text>
<text text-anchor="start" x="680.9474" y="-338.3" font-family="Arial" font-size="14.00" fill="#666666">[BASE TABLE]</text>
<polygon fill="none" stroke="#000000" points="479,-295.5 479,-325.5 781,-325.5 781,-295.5 479,-295.5"/>
<text text-anchor="start" x="486" y="-306.9" font-family="Arial" font-size="14.00" fill="#000000">author_id    </text>
<text text-anchor="start" x="578.5582" y="-306.9" font-family="Arial" font-size="14.00" fill="#666666">[text]</text>
<polygon fill="none" stroke="#000000" points="479,-265.5 479,-295.5 781,-295.5 781,-265.5 479,-265.5"/>
<text text-anchor="start" x="486" y="-276.9" font-family="Arial" font-size="14.00" fill="#000000">book_id    </text>
<text text-anchor="start" x="569.2244" y="-276.9" font-family="Arial" font-size="14.00" fill="#666666">[text]</text>
</g>
<!-- public.author_books&#45;&gt;public.authors -->
<g id="edge1" class="edge">
<title>public.author_books:author_id&#45;&gt;public.authors:id</title>
<path fill="none" stroke="#000000" d="M469.0608,-308.9139C442.8125,-299.3938 455.8409,-249.3637 479,-223 560.9329,-129.7297 674.0671,-280.2703 756,-187 784.3054,-154.7779 798.8889,-90.5 756,-90.5"/>
<polygon fill="#000000" stroke="#000000" points="469.125,-308.924 478.2908,-314.9438 474.0625,-309.712 479,-310.5 479,-310.5 479,-310.5 474.0625,-309.712 479.7092,-306.0562 469.125,-308.924 469.125,-308.924"/>
<text text-anchor="start" x="7.216" y="-320.5" font-family="Arial" font-size="10.00" fill="#000000">FOREIGN KEY (author_id) REFERENCES authors(id) ON UPDATE CASCADE ON DELETE RESTRICT</text>
</g>
</g>
</svg>
