<?xml version="1.0" encoding="UTF-8" standalone="no"?>
<!DOCTYPE svg PUBLIC "-//W3C//DTD SVG 1.1//EN"
 "http://www.w3.org/Graphics/SVG/1.1/DTD/svg11.dtd">
<!-- Generated by graphviz version 2.40.1 (20161225.0304)
 -->
<!-- Title: public.author_books Pages: 1 -->
<svg width="1255pt" height="532pt"
 viewBox="0.00 0.00 1255.00 532.00" xmlns="http://www.w3.org/2000/svg" xmlns:xlink="http://www.w3.org/1999/xlink">
<g id="graph0" class="graph" transform="scale(1 1) rotate(0) translate(4 528)">
<title>public.author_books</title>
<polygon fill="#ffffff" stroke="transparent" points="-4,4 -4,-528 1251,-528 1251,4 -4,4"/>
<!-- public.author_books -->
<g id="node1" class="node">
<title>public.author_books</title>
<polygon fill="#efefef" stroke="transparent" points="479,-442.5 479,-477.5 781,-477.5 781,-442.5 479,-442.5"/>
<polygon fill="none" stroke="#000000" points="479,-442.5 479,-477.5 781,-477.5 781,-442.5 479,-442.5"/>
<text text-anchor="start" x="485.6894" y="-455.3" font-family="Arial Bold" font-size="18.00" fill="#000000">public.author_books</text>
<text text-anchor="start" x="646.7426" y="-455.3" font-family="Arial" font-size="14.00" fill="#000000">    </text>
<text text-anchor="start" x="680.9474" y="-455.3" font-family="Arial" font-size="14.00" fill="#666666">[BASE TABLE]</text>
<polygon fill="none" stroke="#000000" points="479,-412.5 479,-442.5 781,-442.5 781,-412.5 479,-412.5"/>
<text text-anchor="start" x="486" y="-423.9" font-family="Arial" font-size="14.00" fill="#000000">author_id </text>
<text text-anchor="start" x="548.244" y="-423.9" font-family="Arial" font-size="14.00" fill="#666666">[text]</text>
<polygon fill="none" stroke="#000000" points="479,-382.5 479,-412.5 781,-412.5 781,-382.5 479,-382.5"/>
<text text-anchor="start" x="486" y="-393.9" font-family="Arial" font-size="14.00" fill="#000000">book_id </text>
<text text-anchor="start" x="538.9102" y="-393.9" font-family="Arial" font-size="14.00" fill="#666666">[text]</text>
<polygon fill="none" stroke="#000000" stroke-width="3" points="477.5,-381.5 477.5,-479.5 782.5,-479.5 782.5,-381.5 477.5,-381.5"/>
</g>
<!-- public.authors -->
<g id="node2" class="node">
<title>public.authors</title>
<polygon fill="#efefef" stroke="transparent" points="305,-162.5 305,-197.5 558,-197.5 558,-162.5 305,-162.5"/>
<polygon fill="none" stroke="#000000" points="305,-162.5 305,-197.5 558,-197.5 558,-162.5 305,-162.5"/>
<text text-anchor="start" x="311.7018" y="-175.3" font-family="Arial Bold" font-size="18.00" fill="#000000">public.authors</text>
<text text-anchor="start" x="423.7302" y="-175.3" font-family="Arial" font-size="14.00" fill="#000000">    </text>
<text text-anchor="start" x="457.935" y="-175.3" font-family="Arial" font-size="14.00" fill="#666666">[BASE TABLE]</text>
<polygon fill="none" stroke="#000000" points="305,-132.5 305,-162.5 558,-162.5 558,-132.5 305,-132.5"/>
<text text-anchor="start" x="312" y="-143.9" font-family="Arial" font-size="14.00" fill="#000000">id    </text>
<text text-anchor="start" x="357.094" y="-143.9" font-family="Arial" font-size="14.00" fill="#666666">[text]</text>
<polygon fill="none" stroke="#000000" points="305,-102.5 305,-132.5 558,-132.5 558,-102.5 305,-102.5"/>
<text text-anchor="start" x="312" y="-113.9" font-family="Arial" font-size="14.00" fill="#000000">name    </text>
<text text-anchor="start" x="381.2132" y="-113.9" font-family="Arial" font-size="14.00" fill="#666666">[text]</text>
</g>
<!-- public.author_books&#45;&gt;public.authors -->
<g id="edge1" class="edge">
<title>public.author_books:author_id&#45;&gt;public.authors:id</title>
<path fill="none" stroke="#000000" d="M469.0548,-426.0568C443.8575,-417.36 466.75,-371.1645 479,-337 497.65,-284.9864 539.35,-293.0136 558,-241 572.0258,-201.883 599.5556,-147.5 558,-147.5"/>
<polygon fill="#000000" stroke="#000000" points="469.1037,-426.0638 478.3537,-431.9534 474.0518,-426.7819 479,-427.5 479,-427.5 479,-427.5 474.0518,-426.7819 479.6463,-423.0466 469.1037,-426.0638 469.1037,-426.0638"/>
<text text-anchor="start" x="7.216" y="-437.5" font-family="Arial" font-size="10.00" fill="#000000">FOREIGN KEY (author_id) REFERENCES authors(id) ON UPDATE CASCADE ON DELETE RESTRICT</text>
</g>
<!-- public.books -->
<g id="node3" class="node">
<title>public.books</title>
<polygon fill="#efefef" stroke="transparent" points="662,-222.5 662,-257.5 995,-257.5 995,-222.5 662,-222.5"/>
<polygon fill="none" stroke="#000000" points="662,-222.5 662,-257.5 995,-257.5 995,-222.5 662,-222.5"/>
<text text-anchor="start" x="714.7021" y="-235.3" font-family="Arial Bold" font-size="18.00" fill="#000000">public.books</text>
<text text-anchor="start" x="814.7299" y="-235.3" font-family="Arial" font-size="14.00" fill="#000000">    </text>
<text text-anchor="start" x="848.9347" y="-235.3" font-family="Arial" font-size="14.00" fill="#666666">[BASE TABLE]</text>
<polygon fill="none" stroke="#000000" points="662,-192.5 662,-222.5 995,-222.5 995,-192.5 662,-192.5"/>
<text text-anchor="start" x="669" y="-203.9" font-family="Arial" font-size="14.00" fill="#000000">id    </text>
<text text-anchor="start" x="714.094" y="-203.9" font-family="Arial" font-size="14.00" fill="#666666">[text]</text>
<polygon fill="none" stroke="#000000" points="662,-162.5 662,-192.5 995,-192.5 995,-162.5 662,-162.5"/>
<text text-anchor="start" x="669" y="-173.9" font-family="Arial" font-size="14.00" fill="#000000">title    </text>
<text text-anchor="start" x="724.9818" y="-173.9" font-family="Arial" font-size="14.00" fill="#666666">[text]</text>
<polygon fill="none" stroke="#000000" points="662,-132.5 662,-162.5 995,-162.5 995,-132.5 662,-132.5"/>
<text text-anchor="start" x="668.6473" y="-143.9" font-family="Arial" font-size="14.00" fill="#000000">published_on    </text>
<text text-anchor="start" x="786.1087" y="-143.9" font-family="Arial" font-size="14.00" fill="#666666">[timestamp(3) without time zone]</text>
<polygon fill="none" stroke="#000000" points="662,-102.5 662,-132.5 995,-132.5 995,-102.5 662,-102.5"/>
<text text-anchor="start" x="669" y="-113.9" font-family="Arial" font-size="14.00" fill="#000000">price    </text>
<text text-anchor="start" x="733.5372" y="-113.9" font-family="Arial" font-size="14.00" fill="#666666">[integer]</text>
<polygon fill="none" stroke="#000000" points="662,-72.5 662,-102.5 995,-102.5 995,-72.5 662,-72.5"/>
<text text-anchor="start" x="669" y="-83.9" font-family="Arial" font-size="14.00" fill="#000000">subtitle    </text>
<text text-anchor="start" x="747.547" y="-83.9" font-family="Arial" font-size="14.00" fill="#666666">[text]</text>
<polygon fill="none" stroke="#000000" points="662,-42.5 662,-72.5 995,-72.5 995,-42.5 662,-42.5"/>
<text text-anchor="start" x="669" y="-53.9" font-family="Arial" font-size="14.00" fill="#000000">publisher_id    </text>
<text text-anchor="start" x="778.6634" y="-53.9" font-family="Arial" font-size="14.00" fill="#666666">[text]</text>
</g>
<!-- public.author_books&#45;&gt;public.books -->
<g id="edge2" class="edge">
<title>public.author_books:book_id&#45;&gt;public.books:id</title>
<path fill="none" stroke="#000000" d="M790.9635,-394.8647C804.3681,-385.7638 794.5218,-355.2177 781,-337 748.0672,-292.6303 694.9328,-345.3697 662,-301 637.2328,-267.6316 620.4444,-207.5 662,-207.5"/>
<polygon fill="#000000" stroke="#000000" points="790.6676,-394.9429 779.8493,-393.1496 785.8338,-396.2215 781,-397.5 781,-397.5 781,-397.5 785.8338,-396.2215 782.1507,-401.8504 790.6676,-394.9429 790.6676,-394.9429"/>
<text text-anchor="start" x="787.883" y="-407.5" font-family="Arial" font-size="10.00" fill="#000000">FOREIGN KEY (book_id) REFERENCES books(id) ON UPDATE CASCADE ON DELETE RESTRICT</text>
</g>
</g>
</svg>
