<?xml version="1.0" encoding="UTF-8" standalone="no"?>
<!DOCTYPE svg PUBLIC "-//W3C//DTD SVG 1.1//EN"
 "http://www.w3.org/Graphics/SVG/1.1/DTD/svg11.dtd">
<!-- Generated by graphviz version 2.40.1 (20161225.0304)
 -->
<!-- Title: public.publishers Pages: 1 -->
<svg width="723pt" height="532pt"
 viewBox="0.00 0.00 722.50 532.00" xmlns="http://www.w3.org/2000/svg" xmlns:xlink="http://www.w3.org/1999/xlink">
<g id="graph0" class="graph" transform="scale(1 1) rotate(0) translate(4 528)">
<title>public.publishers</title>
<polygon fill="#ffffff" stroke="transparent" points="-4,4 -4,-528 718.5,-528 718.5,4 -4,4"/>
<!-- public.publishers -->
<g id="node1" class="node">
<title>public.publishers</title>
<polygon fill="#efefef" stroke="transparent" points="72.5,-105.5 72.5,-140.5 347.5,-140.5 347.5,-105.5 72.5,-105.5"/>
<polygon fill="none" stroke="#000000" points="72.5,-105.5 72.5,-140.5 347.5,-140.5 347.5,-105.5 72.5,-105.5"/>
<text text-anchor="start" x="79.2056" y="-118.3" font-family="Arial Bold" font-size="18.00" fill="#000000">public.publishers</text>
<text text-anchor="start" x="213.2264" y="-118.3" font-family="Arial" font-size="14.00" fill="#000000">    </text>
<text text-anchor="start" x="247.4312" y="-118.3" font-family="Arial" font-size="14.00" fill="#666666">[BASE TABLE]</text>
<polygon fill="none" stroke="#000000" points="72.5,-75.5 72.5,-105.5 347.5,-105.5 347.5,-75.5 72.5,-75.5"/>
<text text-anchor="start" x="79.5" y="-86.9" font-family="Arial" font-size="14.00" fill="#000000">id </text>
<text text-anchor="start" x="94.2798" y="-86.9" font-family="Arial" font-size="14.00" fill="#666666">[text]</text>
<polygon fill="none" stroke="#000000" points="72.5,-45.5 72.5,-75.5 347.5,-75.5 347.5,-45.5 72.5,-45.5"/>
<text text-anchor="start" x="79.5" y="-56.9" font-family="Arial" font-size="14.00" fill="#000000">name </text>
<text text-anchor="start" x="118.399" y="-56.9" font-family="Arial" font-size="14.00" fill="#666666">[text]</text>
<polygon fill="none" stroke="#000000" stroke-width="3" points="70.5,-44.5 70.5,-142.5 348.5,-142.5 348.5,-44.5 70.5,-44.5"/>
</g>
<!-- public.books -->
<g id="node2" class="node">
<title>public.books</title>
<polygon fill="#efefef" stroke="transparent" points="43.5,-445.5 43.5,-480.5 376.5,-480.5 376.5,-445.5 43.5,-445.5"/>
<polygon fill="none" stroke="#000000" points="43.5,-445.5 43.5,-480.5 376.5,-480.5 376.5,-445.5 43.5,-445.5"/>
<text text-anchor="start" x="96.2021" y="-458.3" font-family="Arial Bold" font-size="18.00" fill="#000000">public.books</text>
<text text-anchor="start" x="196.2299" y="-458.3" font-family="Arial" font-size="14.00" fill="#000000">    </text>
<text text-anchor="start" x="230.4347" y="-458.3" font-family="Arial" font-size="14.00" fill="#666666">[BASE TABLE]</text>
<polygon fill="none" stroke="#000000" points="43.5,-415.5 43.5,-445.5 376.5,-445.5 376.5,-415.5 43.5,-415.5"/>
<text text-anchor="start" x="50.5" y="-426.9" font-family="Arial" font-size="14.00" fill="#000000">id    </text>
<text text-anchor="start" x="95.594" y="-426.9" font-family="Arial" font-size="14.00" fill="#666666">[text]</text>
<polygon fill="none" stroke="#000000" points="43.5,-385.5 43.5,-415.5 376.5,-415.5 376.5,-385.5 43.5,-385.5"/>
<text text-anchor="start" x="50.5" y="-396.9" font-family="Arial" font-size="14.00" fill="#000000">title    </text>
<text text-anchor="start" x="106.4818" y="-396.9" font-family="Arial" font-size="14.00" fill="#666666">[text]</text>
<polygon fill="none" stroke="#000000" points="43.5,-355.5 43.5,-385.5 376.5,-385.5 376.5,-355.5 43.5,-355.5"/>
<text text-anchor="start" x="50.1473" y="-366.9" font-family="Arial" font-size="14.00" fill="#000000">published_on    </text>
<text text-anchor="start" x="167.6087" y="-366.9" font-family="Arial" font-size="14.00" fill="#666666">[timestamp(3) without time zone]</text>
<polygon fill="none" stroke="#000000" points="43.5,-325.5 43.5,-355.5 376.5,-355.5 376.5,-325.5 43.5,-325.5"/>
<text text-anchor="start" x="50.5" y="-336.9" font-family="Arial" font-size="14.00" fill="#000000">price    </text>
<text text-anchor="start" x="115.0372" y="-336.9" font-family="Arial" font-size="14.00" fill="#666666">[integer]</text>
<polygon fill="none" stroke="#000000" points="43.5,-295.5 43.5,-325.5 376.5,-325.5 376.5,-295.5 43.5,-295.5"/>
<text text-anchor="start" x="50.5" y="-306.9" font-family="Arial" font-size="14.00" fill="#000000">subtitle    </text>
<text text-anchor="start" x="129.047" y="-306.9" font-family="Arial" font-size="14.00" fill="#666666">[text]</text>
<polygon fill="none" stroke="#000000" points="43.5,-265.5 43.5,-295.5 376.5,-295.5 376.5,-265.5 43.5,-265.5"/>
<text text-anchor="start" x="50.5" y="-276.9" font-family="Arial" font-size="14.00" fill="#000000">publisher_id    </text>
<text text-anchor="start" x="160.1634" y="-276.9" font-family="Arial" font-size="14.00" fill="#666666">[text]</text>
</g>
<!-- public.books&#45;&gt;public.publishers -->
<g id="edge1" class="edge">
<title>public.books:publisher_id&#45;&gt;public.publishers:id</title>
<path fill="none" stroke="#000000" d="M209.6695,-255.3333C199.8734,-200.2166 106.1058,-244.7787 72.5,-187 50.9367,-149.926 29.6111,-90.5 72.5,-90.5"/>
<polygon fill="#000000" stroke="#000000" points="209.6858,-255.5332 206.0149,-265.8664 210.0929,-260.5166 210.5,-265.5 210.5,-265.5 210.5,-265.5 210.0929,-260.5166 214.9851,-265.1336 209.6858,-255.5332 209.6858,-255.5332"/>
<text text-anchor="start" x="217.498" y="-275.5" font-family="Arial" font-size="10.00" fill="#000000">FOREIGN KEY (publisher_id) REFERENCES publishers(id) ON UPDATE CASCADE ON DELETE RESTRICT</text>
</g>
</g>
</svg>
