<?xml version="1.0" encoding="UTF-8" standalone="no"?>
<!DOCTYPE svg PUBLIC "-//W3C//DTD SVG 1.1//EN"
 "http://www.w3.org/Graphics/SVG/1.1/DTD/svg11.dtd">
<!-- Generated by graphviz version 2.40.1 (20161225.0304)
 -->
<!-- Title: public.books Pages: 1 -->
<svg width="1448pt" height="839pt"
 viewBox="0.00 0.00 1448.00 839.00" xmlns="http://www.w3.org/2000/svg" xmlns:xlink="http://www.w3.org/1999/xlink">
<g id="graph0" class="graph" transform="scale(1 1) rotate(0) translate(4 835)">
<title>public.books</title>
<polygon fill="#ffffff" stroke="transparent" points="-4,4 -4,-835 1444,-835 1444,4 -4,4"/>
<!-- public.books -->
<g id="node1" class="node">
<title>public.books</title>
<polygon fill="#efefef" stroke="transparent" points="568,-442.5 568,-477.5 871,-477.5 871,-442.5 568,-442.5"/>
<polygon fill="none" stroke="#000000" points="568,-442.5 568,-477.5 871,-477.5 871,-442.5 568,-442.5"/>
<text text-anchor="start" x="605.7021" y="-455.3" font-family="Arial Bold" font-size="18.00" fill="#000000">public.books</text>
<text text-anchor="start" x="705.7299" y="-455.3" font-family="Arial" font-size="14.00" fill="#000000">    </text>
<text text-anchor="start" x="739.9347" y="-455.3" font-family="Arial" font-size="14.00" fill="#666666">[BASE TABLE]</text>
<polygon fill="none" stroke="#000000" points="568,-412.5 568,-442.5 871,-442.5 871,-412.5 568,-412.5"/>
<text text-anchor="start" x="575" y="-423.9" font-family="Arial" font-size="14.00" fill="#000000">id </text>
<text text-anchor="start" x="589.7798" y="-423.9" font-family="Arial" font-size="14.00" fill="#666666">[text]</text>
<polygon fill="none" stroke="#000000" points="568,-382.5 568,-412.5 871,-412.5 871,-382.5 568,-382.5"/>
<text text-anchor="start" x="575" y="-393.9" font-family="Arial" font-size="14.00" fill="#000000">title </text>
<text text-anchor="start" x="600.6676" y="-393.9" font-family="Arial" font-size="14.00" fill="#666666">[text]</text>
<polygon fill="none" stroke="#000000" points="568,-352.5 568,-382.5 871,-382.5 871,-352.5 568,-352.5"/>
<text text-anchor="start" x="574.8044" y="-363.9" font-family="Arial" font-size="14.00" fill="#000000">published_on </text>
<text text-anchor="start" x="661.9516" y="-363.9" font-family="Arial" font-size="14.00" fill="#666666">[timestamp(3) without time zone]</text>
<polygon fill="none" stroke="#000000" points="568,-322.5 568,-352.5 871,-352.5 871,-322.5 568,-322.5"/>
<text text-anchor="start" x="575" y="-333.9" font-family="Arial" font-size="14.00" fill="#000000">price </text>
<text text-anchor="start" x="609.223" y="-333.9" font-family="Arial" font-size="14.00" fill="#666666">[integer]</text>
<polygon fill="none" stroke="#000000" points="568,-292.5 568,-322.5 871,-322.5 871,-292.5 568,-292.5"/>
<text text-anchor="start" x="575" y="-303.9" font-family="Arial" font-size="14.00" fill="#000000">subtitle </text>
<text text-anchor="start" x="623.2328" y="-303.9" font-family="Arial" font-size="14.00" fill="#666666">[text]</text>
<polygon fill="none" stroke="#000000" points="568,-262.5 568,-292.5 871,-292.5 871,-262.5 568,-262.5"/>
<text text-anchor="start" x="575" y="-273.9" font-family="Arial" font-size="14.00" fill="#000000">publisher_id </text>
<text text-anchor="start" x="654.3492" y="-273.9" font-family="Arial" font-size="14.00" fill="#666666">[text]</text>
<polygon fill="none" stroke="#000000" stroke-width="3" points="566,-261.5 566,-479.5 872,-479.5 872,-261.5 566,-261.5"/>
</g>
<!-- public.publishers -->
<g id="node5" class="node">
<title>public.publishers</title>
<polygon fill="#efefef" stroke="transparent" points="582,-102.5 582,-137.5 857,-137.5 857,-102.5 582,-102.5"/>
<polygon fill="none" stroke="#000000" points="582,-102.5 582,-137.5 857,-137.5 857,-102.5 582,-102.5"/>
<text text-anchor="start" x="588.7056" y="-115.3" font-family="Arial Bold" font-size="18.00" fill="#000000">public.publishers</text>
<text text-anchor="start" x="722.7264" y="-115.3" font-family="Arial" font-size="14.00" fill="#000000">    </text>
<text text-anchor="start" x="756.9312" y="-115.3" font-family="Arial" font-size="14.00" fill="#666666">[BASE TABLE]</text>
<polygon fill="none" stroke="#000000" points="582,-72.5 582,-102.5 857,-102.5 857,-72.5 582,-72.5"/>
<text text-anchor="start" x="589" y="-83.9" font-family="Arial" font-size="14.00" fill="#000000">id    </text>
<text text-anchor="start" x="634.094" y="-83.9" font-family="Arial" font-size="14.00" fill="#666666">[text]</text>
<polygon fill="none" stroke="#000000" points="582,-42.5 582,-72.5 857,-72.5 857,-42.5 582,-42.5"/>
<text text-anchor="start" x="589" y="-53.9" font-family="Arial" font-size="14.00" fill="#000000">name    </text>
<text text-anchor="start" x="658.2132" y="-53.9" font-family="Arial" font-size="14.00" fill="#666666">[text]</text>
</g>
<!-- public.books&#45;&gt;public.publishers -->
<g id="edge4" class="edge">
<title>public.books:publisher_id&#45;&gt;public.publishers:id</title>
<path fill="none" stroke="#000000" d="M719.1682,-252.2211C709.3569,-196.3952 615.4486,-239.6003 582,-181 561.4,-144.9098 540.4444,-87.5 582,-87.5"/>
<polygon fill="#000000" stroke="#000000" points="719.1933,-252.5326 715.5147,-262.863 719.5967,-257.5163 720,-262.5 720,-262.5 720,-262.5 719.5967,-257.5163 724.4853,-262.137 719.1933,-252.5326 719.1933,-252.5326"/>
<text text-anchor="start" x="726.998" y="-272.5" font-family="Arial" font-size="10.00" fill="#000000">FOREIGN KEY (publisher_id) REFERENCES publishers(id) ON UPDATE CASCADE ON DELETE RESTRICT</text>
</g>
<!-- public.author_books -->
<g id="node2" class="node">
<title>public.author_books</title>
<polygon fill="#efefef" stroke="transparent" points="164,-707.5 164,-742.5 466,-742.5 466,-707.5 164,-707.5"/>
<polygon fill="none" stroke="#000000" points="164,-707.5 164,-742.5 466,-742.5 466,-707.5 164,-707.5"/>
<text text-anchor="start" x="170.6894" y="-720.3" font-family="Arial Bold" font-size="18.00" fill="#000000">public.author_books</text>
<text text-anchor="start" x="331.7426" y="-720.3" font-family="Arial" font-size="14.00" fill="#000000">    </text>
<text text-anchor="start" x="365.9474" y="-720.3" font-family="Arial" font-size="14.00" fill="#666666">[BASE TABLE]</text>
<polygon fill="none" stroke="#000000" points="164,-677.5 164,-707.5 466,-707.5 466,-677.5 164,-677.5"/>
<text text-anchor="start" x="171" y="-688.9" font-family="Arial" font-size="14.00" fill="#000000">author_id    </text>
<text text-anchor="start" x="263.5582" y="-688.9" font-family="Arial" font-size="14.00" fill="#666666">[text]</text>
<polygon fill="none" stroke="#000000" points="164,-647.5 164,-677.5 466,-677.5 466,-647.5 164,-647.5"/>
<text text-anchor="start" x="171" y="-658.9" font-family="Arial" font-size="14.00" fill="#000000">book_id    </text>
<text text-anchor="start" x="254.2244" y="-658.9" font-family="Arial" font-size="14.00" fill="#666666">[text]</text>
</g>
<!-- public.author_books&#45;&gt;public.books -->
<g id="edge1" class="edge">
<title>public.author_books:book_id&#45;&gt;public.books:id</title>
<path fill="none" stroke="#000000" d="M475.9017,-659.8608C521.7156,-634.043 514.6288,-427.5 568,-427.5"/>
<polygon fill="#000000" stroke="#000000" points="475.6627,-659.9245 464.841,-658.1518 470.8313,-661.2122 466,-662.5 466,-662.5 466,-662.5 470.8313,-661.2122 467.159,-666.8482 475.6627,-659.9245 475.6627,-659.9245"/>
<text text-anchor="start" x="6.883" y="-672.5" font-family="Arial" font-size="10.00" fill="#000000">FOREIGN KEY (book_id) REFERENCES books(id) ON UPDATE CASCADE ON DELETE RESTRICT</text>
</g>
<!-- public.book_images -->
<g id="node3" class="node">
<title>public.book_images</title>
<polygon fill="#efefef" stroke="transparent" points="570,-722.5 570,-757.5 870,-757.5 870,-722.5 570,-722.5"/>
<polygon fill="none" stroke="#000000" points="570,-722.5 570,-757.5 870,-757.5 870,-722.5 570,-722.5"/>
<text text-anchor="start" x="576.6965" y="-735.3" font-family="Arial Bold" font-size="18.00" fill="#000000">public.book_images</text>
<text text-anchor="start" x="735.7355" y="-735.3" font-family="Arial" font-size="14.00" fill="#000000">    </text>
<text text-anchor="start" x="769.9403" y="-735.3" font-family="Arial" font-size="14.00" fill="#666666">[BASE TABLE]</text>
<polygon fill="none" stroke="#000000" points="570,-692.5 570,-722.5 870,-722.5 870,-692.5 570,-692.5"/>
<text text-anchor="start" x="577" y="-703.9" font-family="Arial" font-size="14.00" fill="#000000">id    </text>
<text text-anchor="start" x="622.094" y="-703.9" font-family="Arial" font-size="14.00" fill="#666666">[text]</text>
<polygon fill="none" stroke="#000000" points="570,-662.5 570,-692.5 870,-692.5 870,-662.5 570,-662.5"/>
<text text-anchor="start" x="577" y="-673.9" font-family="Arial" font-size="14.00" fill="#000000">url    </text>
<text text-anchor="start" x="626.7546" y="-673.9" font-family="Arial" font-size="14.00" fill="#666666">[text]</text>
<polygon fill="none" stroke="#000000" points="570,-632.5 570,-662.5 870,-662.5 870,-632.5 570,-632.5"/>
<text text-anchor="start" x="577" y="-643.9" font-family="Arial" font-size="14.00" fill="#000000">book_id    </text>
<text text-anchor="start" x="660.2244" y="-643.9" font-family="Arial" font-size="14.00" fill="#666666">[text]</text>
</g>
<!-- public.book_images&#45;&gt;public.books -->
<g id="edge2" class="edge">
<title>public.book_images:book_id&#45;&gt;public.books:id</title>
<path fill="none" stroke="#000000" d="M720.6687,-622.1291C730.0258,-553.899 834.9831,-594.2302 871,-524 890.5715,-485.837 913.8889,-427.5 871,-427.5"/>
<polygon fill="#000000" stroke="#000000" points="720.6436,-622.5207 715.5093,-632.2104 720.3218,-627.5104 720,-632.5 720,-632.5 720,-632.5 720.3218,-627.5104 724.4907,-632.7896 720.6436,-622.5207 720.6436,-622.5207"/>
<text text-anchor="start" x="610.383" y="-616.5" font-family="Arial" font-size="10.00" fill="#000000">FOREIGN KEY (book_id) REFERENCES books(id) ON UPDATE CASCADE ON DELETE RESTRICT</text>
</g>
<!-- public.order_items -->
<g id="node4" class="node">
<title>public.order_items</title>
<polygon fill="#efefef" stroke="transparent" points="974,-752.5 974,-787.5 1262,-787.5 1262,-752.5 974,-752.5"/>
<polygon fill="none" stroke="#000000" points="974,-752.5 974,-787.5 1262,-787.5 1262,-752.5 974,-752.5"/>
<text text-anchor="start" x="980.7094" y="-765.3" font-family="Arial Bold" font-size="18.00" fill="#000000">public.order_items</text>
<text text-anchor="start" x="1127.7226" y="-765.3" font-family="Arial" font-size="14.00" fill="#000000">    </text>
<text text-anchor="start" x="1161.9274" y="-765.3" font-family="Arial" font-size="14.00" fill="#666666">[BASE TABLE]</text>
<polygon fill="none" stroke="#000000" points="974,-722.5 974,-752.5 1262,-752.5 1262,-722.5 974,-722.5"/>
<text text-anchor="start" x="981" y="-733.9" font-family="Arial" font-size="14.00" fill="#000000">id    </text>
<text text-anchor="start" x="1026.094" y="-733.9" font-family="Arial" font-size="14.00" fill="#666666">[text]</text>
<polygon fill="none" stroke="#000000" points="974,-692.5 974,-722.5 1262,-722.5 1262,-692.5 974,-692.5"/>
<text text-anchor="start" x="981" y="-703.9" font-family="Arial" font-size="14.00" fill="#000000">order_id    </text>
<text text-anchor="start" x="1066.5456" y="-703.9" font-family="Arial" font-size="14.00" fill="#666666">[text]</text>
<polygon fill="none" stroke="#000000" points="974,-662.5 974,-692.5 1262,-692.5 1262,-662.5 974,-662.5"/>
<text text-anchor="start" x="981" y="-673.9" font-family="Arial" font-size="14.00" fill="#000000">book_id    </text>
<text text-anchor="start" x="1064.2244" y="-673.9" font-family="Arial" font-size="14.00" fill="#666666">[text]</text>
<polygon fill="none" stroke="#000000" points="974,-632.5 974,-662.5 1262,-662.5 1262,-632.5 974,-632.5"/>
<text text-anchor="start" x="981" y="-643.9" font-family="Arial" font-size="14.00" fill="#000000">quantity    </text>
<text text-anchor="start" x="1064.223" y="-643.9" font-family="Arial" font-size="14.00" fill="#666666">[integer]</text>
<polygon fill="none" stroke="#000000" points="974,-602.5 974,-632.5 1262,-632.5 1262,-602.5 974,-602.5"/>
<text text-anchor="start" x="981" y="-613.9" font-family="Arial" font-size="14.00" fill="#000000">price    </text>
<text text-anchor="start" x="1045.5372" y="-613.9" font-family="Arial" font-size="14.00" fill="#666666">[integer]</text>
</g>
<!-- public.order_items&#45;&gt;public.books -->
<g id="edge3" class="edge">
<title>public.order_items:book_id&#45;&gt;public.books:id</title>
<path fill="none" stroke="#000000" d="M964.2027,-675.0257C915.6611,-649.0614 927.5653,-427.5 871,-427.5"/>
<polygon fill="#000000" stroke="#000000" points="964.3044,-675.0513 972.8981,-681.863 969.1522,-676.2756 974,-677.5 974,-677.5 974,-677.5 969.1522,-676.2756 975.1019,-673.137 964.3044,-675.0513 964.3044,-675.0513"/>
<text text-anchor="start" x="980.883" y="-687.5" font-family="Arial" font-size="10.00" fill="#000000">FOREIGN KEY (book_id) REFERENCES books(id) ON UPDATE CASCADE ON DELETE RESTRICT</text>
</g>
</g>
</svg>
