<?xml version="1.0" encoding="UTF-8" standalone="no"?>
<!DOCTYPE svg PUBLIC "-//W3C//DTD SVG 1.1//EN"
 "http://www.w3.org/Graphics/SVG/1.1/DTD/svg11.dtd">
<!-- Generated by graphviz version 2.40.1 (20161225.0304)
 -->
<!-- Title: public.shipping_addresses Pages: 1 -->
<svg width="913pt" height="592pt"
 viewBox="0.00 0.00 912.50 592.00" xmlns="http://www.w3.org/2000/svg" xmlns:xlink="http://www.w3.org/1999/xlink">
<g id="graph0" class="graph" transform="scale(1 1) rotate(0) translate(4 588)">
<title>public.shipping_addresses</title>
<polygon fill="#ffffff" stroke="transparent" points="-4,4 -4,-588 908.5,-588 908.5,4 -4,4"/>
<!-- public.shipping_addresses -->
<g id="node1" class="node">
<title>public.shipping_addresses</title>
<polygon fill="#efefef" stroke="transparent" points="46.5,-502.5 46.5,-537.5 399.5,-537.5 399.5,-502.5 46.5,-502.5"/>
<polygon fill="none" stroke="#000000" points="46.5,-502.5 46.5,-537.5 399.5,-537.5 399.5,-502.5 46.5,-502.5"/>
<text text-anchor="start" x="53.187" y="-515.3" font-family="Arial Bold" font-size="18.00" fill="#000000">public.shipping_addresses</text>
<text text-anchor="start" x="265.245" y="-515.3" font-family="Arial" font-size="14.00" fill="#000000">    </text>
<text text-anchor="start" x="299.4498" y="-515.3" font-family="Arial" font-size="14.00" fill="#666666">[BASE TABLE]</text>
<polygon fill="none" stroke="#000000" points="46.5,-472.5 46.5,-502.5 399.5,-502.5 399.5,-472.5 46.5,-472.5"/>
<text text-anchor="start" x="53.5" y="-483.9" font-family="Arial" font-size="14.00" fill="#000000">id </text>
<text text-anchor="start" x="68.2798" y="-483.9" font-family="Arial" font-size="14.00" fill="#666666">[text]</text>
<polygon fill="none" stroke="#000000" points="46.5,-442.5 46.5,-472.5 399.5,-472.5 399.5,-442.5 46.5,-442.5"/>
<text text-anchor="start" x="53.5" y="-453.9" font-family="Arial" font-size="14.00" fill="#000000">customer_id </text>
<text text-anchor="start" x="133.622" y="-453.9" font-family="Arial" font-size="14.00" fill="#666666">[text]</text>
<polygon fill="none" stroke="#000000" points="46.5,-412.5 46.5,-442.5 399.5,-442.5 399.5,-412.5 46.5,-412.5"/>
<text text-anchor="start" x="53.5" y="-423.9" font-family="Arial" font-size="14.00" fill="#000000">name </text>
<text text-anchor="start" x="92.399" y="-423.9" font-family="Arial" font-size="14.00" fill="#666666">[text]</text>
<polygon fill="none" stroke="#000000" points="46.5,-382.5 46.5,-412.5 399.5,-412.5 399.5,-382.5 46.5,-382.5"/>
<text text-anchor="start" x="53.5" y="-393.9" font-family="Arial" font-size="14.00" fill="#000000">postal_code </text>
<text text-anchor="start" x="132.866" y="-393.9" font-family="Arial" font-size="14.00" fill="#666666">[text]</text>
<polygon fill="none" stroke="#000000" points="46.5,-352.5 46.5,-382.5 399.5,-382.5 399.5,-352.5 46.5,-352.5"/>
<text text-anchor="start" x="53.5" y="-363.9" font-family="Arial" font-size="14.00" fill="#000000">address </text>
<text text-anchor="start" x="107.1816" y="-363.9" font-family="Arial" font-size="14.00" fill="#666666">[text]</text>
<polygon fill="none" stroke="#000000" points="46.5,-322.5 46.5,-352.5 399.5,-352.5 399.5,-322.5 46.5,-322.5"/>
<text text-anchor="start" x="53.5" y="-333.9" font-family="Arial" font-size="14.00" fill="#000000">tel </text>
<text text-anchor="start" x="72.1704" y="-333.9" font-family="Arial" font-size="14.00" fill="#666666">[text]</text>
<polygon fill="none" stroke="#000000" stroke-width="3" points="44.5,-321.5 44.5,-539.5 400.5,-539.5 400.5,-321.5 44.5,-321.5"/>
</g>
<!-- public.customers -->
<g id="node2" class="node">
<title>public.customers</title>
<polygon fill="#efefef" stroke="transparent" points="85.5,-162.5 85.5,-197.5 361.5,-197.5 361.5,-162.5 85.5,-162.5"/>
<polygon fill="none" stroke="#000000" points="85.5,-162.5 85.5,-197.5 361.5,-197.5 361.5,-162.5 85.5,-162.5"/>
<text text-anchor="start" x="92.2088" y="-175.3" font-family="Arial Bold" font-size="18.00" fill="#000000">public.customers</text>
<text text-anchor="start" x="227.2232" y="-175.3" font-family="Arial" font-size="14.00" fill="#000000">    </text>
<text text-anchor="start" x="261.428" y="-175.3" font-family="Arial" font-size="14.00" fill="#666666">[BASE TABLE]</text>
<polygon fill="none" stroke="#000000" points="85.5,-132.5 85.5,-162.5 361.5,-162.5 361.5,-132.5 85.5,-132.5"/>
<text text-anchor="start" x="92.5" y="-143.9" font-family="Arial" font-size="14.00" fill="#000000">id    </text>
<text text-anchor="start" x="137.594" y="-143.9" font-family="Arial" font-size="14.00" fill="#666666">[text]</text>
<polygon fill="none" stroke="#000000" points="85.5,-102.5 85.5,-132.5 361.5,-132.5 361.5,-102.5 85.5,-102.5"/>
<text text-anchor="start" x="92.5" y="-113.9" font-family="Arial" font-size="14.00" fill="#000000">name    </text>
<text text-anchor="start" x="161.7132" y="-113.9" font-family="Arial" font-size="14.00" fill="#666666">[text]</text>
<polygon fill="none" stroke="#000000" points="85.5,-72.5 85.5,-102.5 361.5,-102.5 361.5,-72.5 85.5,-72.5"/>
<text text-anchor="start" x="92.5" y="-83.9" font-family="Arial" font-size="14.00" fill="#000000">email    </text>
<text text-anchor="start" x="160.1438" y="-83.9" font-family="Arial" font-size="14.00" fill="#666666">[text]</text>
<polygon fill="none" stroke="#000000" points="85.5,-42.5 85.5,-72.5 361.5,-72.5 361.5,-42.5 85.5,-42.5"/>
<text text-anchor="start" x="92.5" y="-53.9" font-family="Arial" font-size="14.00" fill="#000000">password    </text>
<text text-anchor="start" x="186.6024" y="-53.9" font-family="Arial" font-size="14.00" fill="#666666">[text]</text>
</g>
<!-- public.shipping_addresses&#45;&gt;public.customers -->
<g id="edge1" class="edge">
<title>public.shipping_addresses:customer_id&#45;&gt;public.customers:id</title>
<path fill="none" stroke="#000000" d="M409.6704,-456.7862C477.2586,-446.7847 450.4987,-334.1798 399.5,-277 306.0007,-172.1685 178.9993,-345.8315 85.5,-241 57.8398,-209.9874 43.9444,-147.5 85.5,-147.5"/>
<polygon fill="#000000" stroke="#000000" points="409.4755,-456.7997 399.1849,-453.011 404.4877,-457.1499 399.5,-457.5 399.5,-457.5 399.5,-457.5 404.4877,-457.1499 399.8151,-461.989 409.4755,-456.7997 409.4755,-456.7997"/>
<text text-anchor="start" x="406.946" y="-467.5" font-family="Arial" font-size="10.00" fill="#000000">FOREIGN KEY (customer_id) REFERENCES customers(id) ON UPDATE CASCADE ON DELETE RESTRICT</text>
</g>
</g>
</svg>
