<?xml version="1.0" encoding="UTF-8" standalone="no"?>
<!DOCTYPE svg PUBLIC "-//W3C//DTD SVG 1.1//EN"
 "http://www.w3.org/Graphics/SVG/1.1/DTD/svg11.dtd">
<!-- Generated by graphviz version 2.40.1 (20161225.0304)
 -->
<!-- Title: app Pages: 1 -->
<svg width="2557pt" height="983pt"
 viewBox="0.00 0.00 2557.00 983.00" xmlns="http://www.w3.org/2000/svg" xmlns:xlink="http://www.w3.org/1999/xlink">
<g id="graph0" class="graph" transform="scale(1 1) rotate(0) translate(4 979)">
<title>app</title>
<polygon fill="#ffffff" stroke="transparent" points="-4,4 -4,-979 2553,-979 2553,4 -4,4"/>
<!-- public._prisma_migrations -->
<g id="node1" class="node">
<title>public._prisma_migrations</title>
<polygon fill="#efefef" stroke="transparent" points="43,-896.5 43,-931.5 393,-931.5 393,-896.5 43,-896.5"/>
<polygon fill="none" stroke="#000000" points="43,-896.5 43,-931.5 393,-931.5 393,-896.5 43,-896.5"/>
<text text-anchor="start" x="49.7098" y="-909.3" font-family="Arial Bold" font-size="18.00" fill="#000000">public._prisma_migrations</text>
<text text-anchor="start" x="258.7222" y="-909.3" font-family="Arial" font-size="14.00" fill="#000000">    </text>
<text text-anchor="start" x="292.927" y="-909.3" font-family="Arial" font-size="14.00" fill="#666666">[BASE TABLE]</text>
<polygon fill="none" stroke="#000000" points="43,-866.5 43,-896.5 393,-896.5 393,-866.5 43,-866.5"/>
<text text-anchor="start" x="50" y="-877.9" font-family="Arial" font-size="14.00" fill="#000000">id    </text>
<text text-anchor="start" x="95.094" y="-877.9" font-family="Arial" font-size="14.00" fill="#666666">[varchar(36)]</text>
<polygon fill="none" stroke="#000000" points="43,-836.5 43,-866.5 393,-866.5 393,-836.5 43,-836.5"/>
<text text-anchor="start" x="50" y="-847.9" font-family="Arial" font-size="14.00" fill="#000000">checksum    </text>
<text text-anchor="start" x="147.2132" y="-847.9" font-family="Arial" font-size="14.00" fill="#666666">[varchar(64)]</text>
<polygon fill="none" stroke="#000000" points="43,-806.5 43,-836.5 393,-836.5 393,-806.5 43,-806.5"/>
<text text-anchor="start" x="50" y="-817.9" font-family="Arial" font-size="14.00" fill="#000000">finished_at    </text>
<text text-anchor="start" x="151.8948" y="-817.9" font-family="Arial" font-size="14.00" fill="#666666">[timestamp with time zone]</text>
<polygon fill="none" stroke="#000000" points="43,-776.5 43,-806.5 393,-806.5 393,-776.5 43,-776.5"/>
<text text-anchor="start" x="50" y="-787.9" font-family="Arial" font-size="14.00" fill="#000000">migration_name    </text>
<text text-anchor="start" x="184.5512" y="-787.9" font-family="Arial" font-size="14.00" fill="#666666">[varchar(255)]</text>
<polygon fill="none" stroke="#000000" points="43,-746.5 43,-776.5 393,-776.5 393,-746.5 43,-746.5"/>
<text text-anchor="start" x="50" y="-757.9" font-family="Arial" font-size="14.00" fill="#000000">logs    </text>
<text text-anchor="start" x="109.8766" y="-757.9" font-family="Arial" font-size="14.00" fill="#666666">[text]</text>
<polygon fill="none" stroke="#000000" points="43,-716.5 43,-746.5 393,-746.5 393,-716.5 43,-716.5"/>
<text text-anchor="start" x="50" y="-727.9" font-family="Arial" font-size="14.00" fill="#000000">rolled_back_at    </text>
<text text-anchor="start" x="175.23" y="-727.9" font-family="Arial" font-size="14.00" fill="#666666">[timestamp with time zone]</text>
<polygon fill="none" stroke="#000000" points="43,-686.5 43,-716.5 393,-716.5 393,-686.5 43,-686.5"/>
<text text-anchor="start" x="50" y="-697.9" font-family="Arial" font-size="14.00" fill="#000000">started_at    </text>
<text text-anchor="start" x="146.4502" y="-697.9" font-family="Arial" font-size="14.00" fill="#666666">[timestamp with time zone]</text>
<polygon fill="none" stroke="#000000" points="43,-656.5 43,-686.5 393,-686.5 393,-656.5 43,-656.5"/>
<text text-anchor="start" x="50" y="-667.9" font-family="Arial" font-size="14.00" fill="#000000">applied_steps_count    </text>
<text text-anchor="start" x="212.5904" y="-667.9" font-family="Arial" font-size="14.00" fill="#666666">[integer]</text>
</g>
<!-- public.products -->
<g id="node2" class="node">
<title>public.products</title>
<polygon fill="#efefef" stroke="transparent" points="497,-806.5 497,-841.5 759,-841.5 759,-806.5 497,-806.5"/>
<polygon fill="none" stroke="#000000" points="497,-806.5 497,-841.5 759,-841.5 759,-806.5 497,-806.5"/>
<text text-anchor="start" x="503.7018" y="-819.3" font-family="Arial Bold" font-size="18.00" fill="#000000">public.products</text>
<text text-anchor="start" x="624.7302" y="-819.3" font-family="Arial" font-size="14.00" fill="#000000">    </text>
<text text-anchor="start" x="658.935" y="-819.3" font-family="Arial" font-size="14.00" fill="#666666">[BASE TABLE]</text>
<polygon fill="none" stroke="#000000" points="497,-776.5 497,-806.5 759,-806.5 759,-776.5 497,-776.5"/>
<text text-anchor="start" x="504" y="-787.9" font-family="Arial" font-size="14.00" fill="#000000">id    </text>
<text text-anchor="start" x="549.094" y="-787.9" font-family="Arial" font-size="14.00" fill="#666666">[text]</text>
<polygon fill="none" stroke="#000000" points="497,-746.5 497,-776.5 759,-776.5 759,-746.5 497,-746.5"/>
<text text-anchor="start" x="504" y="-757.9" font-family="Arial" font-size="14.00" fill="#000000">code    </text>
<text text-anchor="start" x="568.5526" y="-757.9" font-family="Arial" font-size="14.00" fill="#666666">[text]</text>
</g>
<!-- public.books -->
<g id="node3" class="node">
<title>public.books</title>
<polygon fill="#efefef" stroke="transparent" points="1252,-499.5 1252,-534.5 1585,-534.5 1585,-499.5 1252,-499.5"/>
<polygon fill="none" stroke="#000000" points="1252,-499.5 1252,-534.5 1585,-534.5 1585,-499.5 1252,-499.5"/>
<text text-anchor="start" x="1304.7021" y="-512.3" font-family="Arial Bold" font-size="18.00" fill="#000000">public.books</text>
<text text-anchor="start" x="1404.7299" y="-512.3" font-family="Arial" font-size="14.00" fill="#000000">    </text>
<text text-anchor="start" x="1438.9347" y="-512.3" font-family="Arial" font-size="14.00" fill="#666666">[BASE TABLE]</text>
<polygon fill="none" stroke="#000000" points="1252,-469.5 1252,-499.5 1585,-499.5 1585,-469.5 1252,-469.5"/>
<text text-anchor="start" x="1259" y="-480.9" font-family="Arial" font-size="14.00" fill="#000000">id    </text>
<text text-anchor="start" x="1304.094" y="-480.9" font-family="Arial" font-size="14.00" fill="#666666">[text]</text>
<polygon fill="none" stroke="#000000" points="1252,-439.5 1252,-469.5 1585,-469.5 1585,-439.5 1252,-439.5"/>
<text text-anchor="start" x="1259" y="-450.9" font-family="Arial" font-size="14.00" fill="#000000">title    </text>
<text text-anchor="start" x="1314.9818" y="-450.9" font-family="Arial" font-size="14.00" fill="#666666">[text]</text>
<polygon fill="none" stroke="#000000" points="1252,-409.5 1252,-439.5 1585,-439.5 1585,-409.5 1252,-409.5"/>
<text text-anchor="start" x="1258.6473" y="-420.9" font-family="Arial" font-size="14.00" fill="#000000">published_on    </text>
<text text-anchor="start" x="1376.1087" y="-420.9" font-family="Arial" font-size="14.00" fill="#666666">[timestamp(3) without time zone]</text>
<polygon fill="none" stroke="#000000" points="1252,-379.5 1252,-409.5 1585,-409.5 1585,-379.5 1252,-379.5"/>
<text text-anchor="start" x="1259" y="-390.9" font-family="Arial" font-size="14.00" fill="#000000">price    </text>
<text text-anchor="start" x="1323.5372" y="-390.9" font-family="Arial" font-size="14.00" fill="#666666">[integer]</text>
<polygon fill="none" stroke="#000000" points="1252,-349.5 1252,-379.5 1585,-379.5 1585,-349.5 1252,-349.5"/>
<text text-anchor="start" x="1259" y="-360.9" font-family="Arial" font-size="14.00" fill="#000000">subtitle    </text>
<text text-anchor="start" x="1337.547" y="-360.9" font-family="Arial" font-size="14.00" fill="#666666">[text]</text>
<polygon fill="none" stroke="#000000" points="1252,-319.5 1252,-349.5 1585,-349.5 1585,-319.5 1252,-319.5"/>
<text text-anchor="start" x="1259" y="-330.9" font-family="Arial" font-size="14.00" fill="#000000">publisher_id    </text>
<text text-anchor="start" x="1368.6634" y="-330.9" font-family="Arial" font-size="14.00" fill="#666666">[text]</text>
</g>
<!-- public.publishers -->
<g id="node4" class="node">
<title>public.publishers</title>
<polygon fill="#efefef" stroke="transparent" points="1281,-132.5 1281,-167.5 1556,-167.5 1556,-132.5 1281,-132.5"/>
<polygon fill="none" stroke="#000000" points="1281,-132.5 1281,-167.5 1556,-167.5 1556,-132.5 1281,-132.5"/>
<text text-anchor="start" x="1287.7056" y="-145.3" font-family="Arial Bold" font-size="18.00" fill="#000000">public.publishers</text>
<text text-anchor="start" x="1421.7264" y="-145.3" font-family="Arial" font-size="14.00" fill="#000000">    </text>
<text text-anchor="start" x="1455.9312" y="-145.3" font-family="Arial" font-size="14.00" fill="#666666">[BASE TABLE]</text>
<polygon fill="none" stroke="#000000" points="1281,-102.5 1281,-132.5 1556,-132.5 1556,-102.5 1281,-102.5"/>
<text text-anchor="start" x="1288" y="-113.9" font-family="Arial" font-size="14.00" fill="#000000">id    </text>
<text text-anchor="start" x="1333.094" y="-113.9" font-family="Arial" font-size="14.00" fill="#666666">[text]</text>
<polygon fill="none" stroke="#000000" points="1281,-72.5 1281,-102.5 1556,-102.5 1556,-72.5 1281,-72.5"/>
<text text-anchor="start" x="1288" y="-83.9" font-family="Arial" font-size="14.00" fill="#000000">name    </text>
<text text-anchor="start" x="1357.2132" y="-83.9" font-family="Arial" font-size="14.00" fill="#666666">[text]</text>
</g>
<!-- public.books&#45;&gt;public.publishers -->
<g id="edge1" class="edge">
<title>public.books:publisher_id&#45;&gt;public.publishers:id</title>
<path fill="none" stroke="#000000" d="M1418.333,-309.2809C1409.4122,-244.9599 1313.4962,-277.8869 1281,-211 1262.8405,-173.6222 1239.4444,-117.5 1281,-117.5"/>
<polygon fill="#000000" stroke="#000000" points="1418.3486,-309.5212 1414.5096,-319.7931 1418.6743,-314.5106 1419,-319.5 1419,-319.5 1419,-319.5 1418.6743,-314.5106 1423.4904,-319.2069 1418.3486,-309.5212 1418.3486,-309.5212"/>
<text text-anchor="start" x="1425.998" y="-303.5" font-family="Arial" font-size="10.00" fill="#000000">FOREIGN KEY (publisher_id) REFERENCES publishers(id) ON UPDATE CASCADE ON DELETE RESTRICT</text>
</g>
<!-- public.authors -->
<g id="node5" class="node">
<title>public.authors</title>
<polygon fill="#efefef" stroke="transparent" points="887,-439.5 887,-474.5 1140,-474.5 1140,-439.5 887,-439.5"/>
<polygon fill="none" stroke="#000000" points="887,-439.5 887,-474.5 1140,-474.5 1140,-439.5 887,-439.5"/>
<text text-anchor="start" x="893.7018" y="-452.3" font-family="Arial Bold" font-size="18.00" fill="#000000">public.authors</text>
<text text-anchor="start" x="1005.7302" y="-452.3" font-family="Arial" font-size="14.00" fill="#000000">    </text>
<text text-anchor="start" x="1039.935" y="-452.3" font-family="Arial" font-size="14.00" fill="#666666">[BASE TABLE]</text>
<polygon fill="none" stroke="#000000" points="887,-409.5 887,-439.5 1140,-439.5 1140,-409.5 887,-409.5"/>
<text text-anchor="start" x="894" y="-420.9" font-family="Arial" font-size="14.00" fill="#000000">id    </text>
<text text-anchor="start" x="939.094" y="-420.9" font-family="Arial" font-size="14.00" fill="#666666">[text]</text>
<polygon fill="none" stroke="#000000" points="887,-379.5 887,-409.5 1140,-409.5 1140,-379.5 887,-379.5"/>
<text text-anchor="start" x="894" y="-390.9" font-family="Arial" font-size="14.00" fill="#000000">name    </text>
<text text-anchor="start" x="963.2132" y="-390.9" font-family="Arial" font-size="14.00" fill="#666666">[text]</text>
</g>
<!-- public.author_books -->
<g id="node6" class="node">
<title>public.author_books</title>
<polygon fill="#efefef" stroke="transparent" points="863,-806.5 863,-841.5 1165,-841.5 1165,-806.5 863,-806.5"/>
<polygon fill="none" stroke="#000000" points="863,-806.5 863,-841.5 1165,-841.5 1165,-806.5 863,-806.5"/>
<text text-anchor="start" x="869.6894" y="-819.3" font-family="Arial Bold" font-size="18.00" fill="#000000">public.author_books</text>
<text text-anchor="start" x="1030.7426" y="-819.3" font-family="Arial" font-size="14.00" fill="#000000">    </text>
<text text-anchor="start" x="1064.9474" y="-819.3" font-family="Arial" font-size="14.00" fill="#666666">[BASE TABLE]</text>
<polygon fill="none" stroke="#000000" points="863,-776.5 863,-806.5 1165,-806.5 1165,-776.5 863,-776.5"/>
<text text-anchor="start" x="870" y="-787.9" font-family="Arial" font-size="14.00" fill="#000000">author_id    </text>
<text text-anchor="start" x="962.5582" y="-787.9" font-family="Arial" font-size="14.00" fill="#666666">[text]</text>
<polygon fill="none" stroke="#000000" points="863,-746.5 863,-776.5 1165,-776.5 1165,-746.5 863,-746.5"/>
<text text-anchor="start" x="870" y="-757.9" font-family="Arial" font-size="14.00" fill="#000000">book_id    </text>
<text text-anchor="start" x="953.2244" y="-757.9" font-family="Arial" font-size="14.00" fill="#666666">[text]</text>
</g>
<!-- public.author_books&#45;&gt;public.books -->
<g id="edge2" class="edge">
<title>public.author_books:book_id&#45;&gt;public.books:id</title>
<path fill="none" stroke="#000000" d="M1175.2549,-760.8461C1284.5911,-746.0327 1126.6139,-484.5 1252,-484.5"/>
<polygon fill="#000000" stroke="#000000" points="1174.9797,-760.8635 1164.7136,-757.0091 1169.9899,-761.1818 1165,-761.5 1165,-761.5 1165,-761.5 1169.9899,-761.1818 1165.2864,-765.9909 1174.9797,-760.8635 1174.9797,-760.8635"/>
<text text-anchor="start" x="705.883" y="-771.5" font-family="Arial" font-size="10.00" fill="#000000">FOREIGN KEY (book_id) REFERENCES books(id) ON UPDATE CASCADE ON DELETE RESTRICT</text>
</g>
<!-- public.author_books&#45;&gt;public.authors -->
<g id="edge3" class="edge">
<title>public.author_books:author_id&#45;&gt;public.authors:id</title>
<path fill="none" stroke="#000000" d="M852.9271,-789.9298C828.2709,-780.892 846.5649,-734.8324 863,-704 932.7547,-573.1397 1070.2453,-648.8603 1140,-518 1159.5474,-481.329 1181.5556,-424.5 1140,-424.5"/>
<polygon fill="#000000" stroke="#000000" points="853.1193,-789.9597 862.3068,-795.9463 858.0597,-790.7298 863,-791.5 863,-791.5 863,-791.5 858.0597,-790.7298 863.6932,-787.0537 853.1193,-789.9597 853.1193,-789.9597"/>
<text text-anchor="start" x="870.216" y="-801.5" font-family="Arial" font-size="10.00" fill="#000000">FOREIGN KEY (author_id) REFERENCES authors(id) ON UPDATE CASCADE ON DELETE RESTRICT</text>
</g>
<!-- public.book_images -->
<g id="node7" class="node">
<title>public.book_images</title>
<polygon fill="#efefef" stroke="transparent" points="1269,-821.5 1269,-856.5 1569,-856.5 1569,-821.5 1269,-821.5"/>
<polygon fill="none" stroke="#000000" points="1269,-821.5 1269,-856.5 1569,-856.5 1569,-821.5 1269,-821.5"/>
<text text-anchor="start" x="1275.6965" y="-834.3" font-family="Arial Bold" font-size="18.00" fill="#000000">public.book_images</text>
<text text-anchor="start" x="1434.7355" y="-834.3" font-family="Arial" font-size="14.00" fill="#000000">    </text>
<text text-anchor="start" x="1468.9403" y="-834.3" font-family="Arial" font-size="14.00" fill="#666666">[BASE TABLE]</text>
<polygon fill="none" stroke="#000000" points="1269,-791.5 1269,-821.5 1569,-821.5 1569,-791.5 1269,-791.5"/>
<text text-anchor="start" x="1276" y="-802.9" font-family="Arial" font-size="14.00" fill="#000000">id    </text>
<text text-anchor="start" x="1321.094" y="-802.9" font-family="Arial" font-size="14.00" fill="#666666">[text]</text>
<polygon fill="none" stroke="#000000" points="1269,-761.5 1269,-791.5 1569,-791.5 1569,-761.5 1269,-761.5"/>
<text text-anchor="start" x="1276" y="-772.9" font-family="Arial" font-size="14.00" fill="#000000">url    </text>
<text text-anchor="start" x="1325.7546" y="-772.9" font-family="Arial" font-size="14.00" fill="#666666">[text]</text>
<polygon fill="none" stroke="#000000" points="1269,-731.5 1269,-761.5 1569,-761.5 1569,-731.5 1269,-731.5"/>
<text text-anchor="start" x="1276" y="-742.9" font-family="Arial" font-size="14.00" fill="#000000">book_id    </text>
<text text-anchor="start" x="1359.2244" y="-742.9" font-family="Arial" font-size="14.00" fill="#666666">[text]</text>
</g>
<!-- public.book_images&#45;&gt;public.books -->
<g id="edge4" class="edge">
<title>public.book_images:book_id&#45;&gt;public.books:id</title>
<path fill="none" stroke="#000000" d="M1419.457,-721.4075C1427.7353,-633.5979 1546.1535,-666.8306 1585,-578 1601.6502,-539.9259 1626.5556,-484.5 1585,-484.5"/>
<polygon fill="#000000" stroke="#000000" points="1419.4525,-721.5102 1414.5046,-731.2964 1419.2262,-726.5051 1419,-731.5 1419,-731.5 1419,-731.5 1419.2262,-726.5051 1423.4954,-731.7036 1419.4525,-721.5102 1419.4525,-721.5102"/>
<text text-anchor="start" x="959.883" y="-741.5" font-family="Arial" font-size="10.00" fill="#000000">FOREIGN KEY (book_id) REFERENCES books(id) ON UPDATE CASCADE ON DELETE RESTRICT</text>
</g>
<!-- public.customers -->
<g id="node8" class="node">
<title>public.customers</title>
<polygon fill="#efefef" stroke="transparent" points="1881,-162.5 1881,-197.5 2157,-197.5 2157,-162.5 1881,-162.5"/>
<polygon fill="none" stroke="#000000" points="1881,-162.5 1881,-197.5 2157,-197.5 2157,-162.5 1881,-162.5"/>
<text text-anchor="start" x="1887.7088" y="-175.3" font-family="Arial Bold" font-size="18.00" fill="#000000">public.customers</text>
<text text-anchor="start" x="2022.7232" y="-175.3" font-family="Arial" font-size="14.00" fill="#000000">    </text>
<text text-anchor="start" x="2056.928" y="-175.3" font-family="Arial" font-size="14.00" fill="#666666">[BASE TABLE]</text>
<polygon fill="none" stroke="#000000" points="1881,-132.5 1881,-162.5 2157,-162.5 2157,-132.5 1881,-132.5"/>
<text text-anchor="start" x="1888" y="-143.9" font-family="Arial" font-size="14.00" fill="#000000">id    </text>
<text text-anchor="start" x="1933.094" y="-143.9" font-family="Arial" font-size="14.00" fill="#666666">[text]</text>
<polygon fill="none" stroke="#000000" points="1881,-102.5 1881,-132.5 2157,-132.5 2157,-102.5 1881,-102.5"/>
<text text-anchor="start" x="1888" y="-113.9" font-family="Arial" font-size="14.00" fill="#000000">name    </text>
<text text-anchor="start" x="1957.2132" y="-113.9" font-family="Arial" font-size="14.00" fill="#666666">[text]</text>
<polygon fill="none" stroke="#000000" points="1881,-72.5 1881,-102.5 2157,-102.5 2157,-72.5 1881,-72.5"/>
<text text-anchor="start" x="1888" y="-83.9" font-family="Arial" font-size="14.00" fill="#000000">email    </text>
<text text-anchor="start" x="1955.6438" y="-83.9" font-family="Arial" font-size="14.00" fill="#666666">[text]</text>
<polygon fill="none" stroke="#000000" points="1881,-42.5 1881,-72.5 2157,-72.5 2157,-42.5 1881,-42.5"/>
<text text-anchor="start" x="1888" y="-53.9" font-family="Arial" font-size="14.00" fill="#000000">password    </text>
<text text-anchor="start" x="1982.1024" y="-53.9" font-family="Arial" font-size="14.00" fill="#666666">[text]</text>
</g>
<!-- public.orders -->
<g id="node9" class="node">
<title>public.orders</title>
<polygon fill="#efefef" stroke="transparent" points="1695,-439.5 1695,-474.5 1939,-474.5 1939,-439.5 1695,-439.5"/>
<polygon fill="none" stroke="#000000" points="1695,-439.5 1695,-474.5 1939,-474.5 1939,-439.5 1695,-439.5"/>
<text text-anchor="start" x="1701.7099" y="-452.3" font-family="Arial Bold" font-size="18.00" fill="#000000">public.orders</text>
<text text-anchor="start" x="1804.7221" y="-452.3" font-family="Arial" font-size="14.00" fill="#000000">    </text>
<text text-anchor="start" x="1838.9269" y="-452.3" font-family="Arial" font-size="14.00" fill="#666666">[BASE TABLE]</text>
<polygon fill="none" stroke="#000000" points="1695,-409.5 1695,-439.5 1939,-439.5 1939,-409.5 1695,-409.5"/>
<text text-anchor="start" x="1702" y="-420.9" font-family="Arial" font-size="14.00" fill="#000000">id    </text>
<text text-anchor="start" x="1747.094" y="-420.9" font-family="Arial" font-size="14.00" fill="#666666">[text]</text>
<polygon fill="none" stroke="#000000" points="1695,-379.5 1695,-409.5 1939,-409.5 1939,-379.5 1695,-379.5"/>
<text text-anchor="start" x="1702" y="-390.9" font-family="Arial" font-size="14.00" fill="#000000">customer_id    </text>
<text text-anchor="start" x="1812.4362" y="-390.9" font-family="Arial" font-size="14.00" fill="#666666">[text]</text>
</g>
<!-- public.orders&#45;&gt;public.customers -->
<g id="edge5" class="edge">
<title>public.orders:customer_id&#45;&gt;public.customers:id</title>
<path fill="none" stroke="#000000" d="M1948.8151,-391.5537C1958.2188,-382.9498 1944.6268,-357.1943 1939,-337 1925.6201,-288.98 1894.3799,-289.02 1881,-241 1869.8462,-200.9693 1839.4444,-147.5 1881,-147.5"/>
<polygon fill="#000000" stroke="#000000" points="1948.5778,-391.6248 1937.7062,-390.19 1943.7889,-393.0624 1939,-394.5 1939,-394.5 1939,-394.5 1943.7889,-393.0624 1940.2938,-398.81 1948.5778,-391.6248 1948.5778,-391.6248"/>
<text text-anchor="start" x="1946.446" y="-404.5" font-family="Arial" font-size="10.00" fill="#000000">FOREIGN KEY (customer_id) REFERENCES customers(id) ON UPDATE CASCADE ON DELETE RESTRICT</text>
</g>
<!-- public.order_items -->
<g id="node10" class="node">
<title>public.order_items</title>
<polygon fill="#efefef" stroke="transparent" points="1673,-851.5 1673,-886.5 1961,-886.5 1961,-851.5 1673,-851.5"/>
<polygon fill="none" stroke="#000000" points="1673,-851.5 1673,-886.5 1961,-886.5 1961,-851.5 1673,-851.5"/>
<text text-anchor="start" x="1679.7094" y="-864.3" font-family="Arial Bold" font-size="18.00" fill="#000000">public.order_items</text>
<text text-anchor="start" x="1826.7226" y="-864.3" font-family="Arial" font-size="14.00" fill="#000000">    </text>
<text text-anchor="start" x="1860.9274" y="-864.3" font-family="Arial" font-size="14.00" fill="#666666">[BASE TABLE]</text>
<polygon fill="none" stroke="#000000" points="1673,-821.5 1673,-851.5 1961,-851.5 1961,-821.5 1673,-821.5"/>
<text text-anchor="start" x="1680" y="-832.9" font-family="Arial" font-size="14.00" fill="#000000">id    </text>
<text text-anchor="start" x="1725.094" y="-832.9" font-family="Arial" font-size="14.00" fill="#666666">[text]</text>
<polygon fill="none" stroke="#000000" points="1673,-791.5 1673,-821.5 1961,-821.5 1961,-791.5 1673,-791.5"/>
<text text-anchor="start" x="1680" y="-802.9" font-family="Arial" font-size="14.00" fill="#000000">order_id    </text>
<text text-anchor="start" x="1765.5456" y="-802.9" font-family="Arial" font-size="14.00" fill="#666666">[text]</text>
<polygon fill="none" stroke="#000000" points="1673,-761.5 1673,-791.5 1961,-791.5 1961,-761.5 1673,-761.5"/>
<text text-anchor="start" x="1680" y="-772.9" font-family="Arial" font-size="14.00" fill="#000000">book_id    </text>
<text text-anchor="start" x="1763.2244" y="-772.9" font-family="Arial" font-size="14.00" fill="#666666">[text]</text>
<polygon fill="none" stroke="#000000" points="1673,-731.5 1673,-761.5 1961,-761.5 1961,-731.5 1673,-731.5"/>
<text text-anchor="start" x="1680" y="-742.9" font-family="Arial" font-size="14.00" fill="#000000">quantity    </text>
<text text-anchor="start" x="1763.223" y="-742.9" font-family="Arial" font-size="14.00" fill="#666666">[integer]</text>
<polygon fill="none" stroke="#000000" points="1673,-701.5 1673,-731.5 1961,-731.5 1961,-701.5 1673,-701.5"/>
<text text-anchor="start" x="1680" y="-712.9" font-family="Arial" font-size="14.00" fill="#000000">price    </text>
<text text-anchor="start" x="1744.5372" y="-712.9" font-family="Arial" font-size="14.00" fill="#666666">[integer]</text>
</g>
<!-- public.order_items&#45;&gt;public.books -->
<g id="edge6" class="edge">
<title>public.order_items:book_id&#45;&gt;public.books:id</title>
<path fill="none" stroke="#000000" d="M1663.2065,-774.1496C1609.9221,-746.5152 1649.1977,-484.5 1585,-484.5"/>
<polygon fill="#000000" stroke="#000000" points="1663.2761,-774.1662 1671.9498,-780.8757 1668.1381,-775.3331 1673,-776.5 1673,-776.5 1673,-776.5 1668.1381,-775.3331 1674.0502,-772.1243 1663.2761,-774.1662 1663.2761,-774.1662"/>
<text text-anchor="start" x="1679.883" y="-786.5" font-family="Arial" font-size="10.00" fill="#000000">FOREIGN KEY (book_id) REFERENCES books(id) ON UPDATE CASCADE ON DELETE RESTRICT</text>
</g>
<!-- public.order_items&#45;&gt;public.orders -->
<g id="edge7" class="edge">
<title>public.order_items:order_id&#45;&gt;public.orders:id</title>
<path fill="none" stroke="#000000" d="M1969.2229,-800.8035C2000.228,-753.284 1978.4424,-424.5 1939,-424.5"/>
<polygon fill="#000000" stroke="#000000" points="1969.2202,-800.8054 1958.4374,-802.8009 1965.1101,-803.6527 1961,-806.5 1961,-806.5 1961,-806.5 1965.1101,-803.6527 1963.5626,-810.1991 1969.2202,-800.8054 1969.2202,-800.8054"/>
<text text-anchor="start" x="1968.225" y="-816.5" font-family="Arial" font-size="10.00" fill="#000000">FOREIGN KEY (order_id) REFERENCES orders(id) ON UPDATE CASCADE ON DELETE RESTRICT</text>
</g>
<!-- public.shipping_addresses -->
<g id="node11" class="node">
<title>public.shipping_addresses</title>
<polygon fill="#efefef" stroke="transparent" points="2044,-499.5 2044,-534.5 2397,-534.5 2397,-499.5 2044,-499.5"/>
<polygon fill="none" stroke="#000000" points="2044,-499.5 2044,-534.5 2397,-534.5 2397,-499.5 2044,-499.5"/>
<text text-anchor="start" x="2050.687" y="-512.3" font-family="Arial Bold" font-size="18.00" fill="#000000">public.shipping_addresses</text>
<text text-anchor="start" x="2262.745" y="-512.3" font-family="Arial" font-size="14.00" fill="#000000">    </text>
<text text-anchor="start" x="2296.9498" y="-512.3" font-family="Arial" font-size="14.00" fill="#666666">[BASE TABLE]</text>
<polygon fill="none" stroke="#000000" points="2044,-469.5 2044,-499.5 2397,-499.5 2397,-469.5 2044,-469.5"/>
<text text-anchor="start" x="2051" y="-480.9" font-family="Arial" font-size="14.00" fill="#000000">id    </text>
<text text-anchor="start" x="2096.094" y="-480.9" font-family="Arial" font-size="14.00" fill="#666666">[text]</text>
<polygon fill="none" stroke="#000000" points="2044,-439.5 2044,-469.5 2397,-469.5 2397,-439.5 2044,-439.5"/>
<text text-anchor="start" x="2051" y="-450.9" font-family="Arial" font-size="14.00" fill="#000000">customer_id    </text>
<text text-anchor="start" x="2161.4362" y="-450.9" font-family="Arial" font-size="14.00" fill="#666666">[text]</text>
<polygon fill="none" stroke="#000000" points="2044,-409.5 2044,-439.5 2397,-439.5 2397,-409.5 2044,-409.5"/>
<text text-anchor="start" x="2051" y="-420.9" font-family="Arial" font-size="14.00" fill="#000000">name    </text>
<text text-anchor="start" x="2120.2132" y="-420.9" font-family="Arial" font-size="14.00" fill="#666666">[text]</text>
<polygon fill="none" stroke="#000000" points="2044,-379.5 2044,-409.5 2397,-409.5 2397,-379.5 2044,-379.5"/>
<text text-anchor="start" x="2051" y="-390.9" font-family="Arial" font-size="14.00" fill="#000000">postal_code    </text>
<text text-anchor="start" x="2160.6802" y="-390.9" font-family="Arial" font-size="14.00" fill="#666666">[text]</text>
<polygon fill="none" stroke="#000000" points="2044,-349.5 2044,-379.5 2397,-379.5 2397,-349.5 2044,-349.5"/>
<text text-anchor="start" x="2051" y="-360.9" font-family="Arial" font-size="14.00" fill="#000000">address    </text>
<text text-anchor="start" x="2134.9958" y="-360.9" font-family="Arial" font-size="14.00" fill="#666666">[text]</text>
<polygon fill="none" stroke="#000000" points="2044,-319.5 2044,-349.5 2397,-349.5 2397,-319.5 2044,-319.5"/>
<text text-anchor="start" x="2051" y="-330.9" font-family="Arial" font-size="14.00" fill="#000000">tel    </text>
<text text-anchor="start" x="2099.9846" y="-330.9" font-family="Arial" font-size="14.00" fill="#666666">[text]</text>
</g>
<!-- public.shipping_addresses&#45;&gt;public.customers -->
<g id="edge8" class="edge">
<title>public.shipping_addresses:customer_id&#45;&gt;public.customers:id</title>
<path fill="none" stroke="#000000" d="M2033.6294,-453.7667C1968.1739,-443.9404 1999.6294,-337.7037 2044,-277 2075.104,-234.4464 2125.896,-283.5536 2157,-241 2181.5221,-207.4511 2198.5556,-147.5 2157,-147.5"/>
<polygon fill="#000000" stroke="#000000" points="2034.0249,-453.7945 2043.6825,-458.9888 2039.0125,-454.1473 2044,-454.5 2044,-454.5 2044,-454.5 2039.0125,-454.1473 2044.3175,-450.0112 2034.0249,-453.7945 2034.0249,-453.7945"/>
<text text-anchor="start" x="2051.446" y="-464.5" font-family="Arial" font-size="10.00" fill="#000000">FOREIGN KEY (customer_id) REFERENCES customers(id) ON UPDATE CASCADE ON DELETE RESTRICT</text>
</g>
</g>
</svg>
